<?xml version="1.0" encoding="UTF-8" standalone="no"?>
<svg xmlns="http://www.w3.org/2000/svg" xmlns:xlink="http://www.w3.org/1999/xlink" version="1.1" width="700" height="700" viewBox="-158 14 700 700"><g id="document" fill-opacity="0" fill="#ffffff" fill-rule="nonzero" font-family="none" font-weight="none" font-size="none"><rect x="-158" y="10" transform="scale(1,1.4)" width="700" height="500" id="Shape-1-1"/></g><g fill="#ffffff" fill-rule="nonzero" stroke="none" stroke-width="1" stroke-linecap="butt" stroke-linejoin="miter" stroke-miterlimit="10" font-family="none" font-weight="none" font-size="none"><g id="stage"><g id="layer1-1"><g id="Group-1"><path d="M203.49285,373.62454l-42.05402,-41.70853h-16.17445v64.34538h16.17445v-41.75373l42.05402,41.75373h16.17478v-64.34538h-16.17478z" id="Path-1"/><path d="M445.20894,331.98036l-44.37506,-0.06435v64.34538h16.17412v-23.16424h28.20094c20.78259,0 26.79106,-10.77153 26.79106,-20.44909c0,-9.78047 -6.00847,-20.66771 -26.79106,-20.66771zM455.82588,352.61591c0,3.86071 -2.42118,7.61847 -10.17553,7.61847h-28.64235v-15.44286h28.64235c7.76094,0 10.17553,3.77707 10.17553,7.72141z" id="CompoundPath-1"/><path d="M391.12612,352.65452c0,-9.78692 -6.01176,-20.67416 -26.79106,-20.67416l-44.37835,-0.06435v64.34538h16.17412v-23.16424h19.94588l15.58776,23.16424h19.46165l-16.34212,-24.28391c12.42212,-2.99864 16.34212,-11.51788 16.34212,-19.32296zM374.952,352.61591c0,3.86071 -2.42776,7.61847 -10.17882,7.61847h-28.64235v-15.44286h28.64235c7.76424,0 10.17882,3.77707 10.17882,7.72141z" id="CompoundPath-1-1"/><path d="M96.39054,330.30756c-24.46245,0 -40.43661,13.28086 -40.43661,33.78118c0,20.50061 15.98701,33.78151 40.43661,33.78151c24.63704,0 40.43628,-13.28089 40.43628,-33.78151c0,-20.50032 -15.85096,-33.78118 -40.43628,-33.78118zM96.39054,383.39226c-14.5768,0 -24.26184,-7.72141 -24.26184,-19.30353c0,-11.58205 9.70447,-19.3035 24.26184,-19.3035c14.55704,0 24.35242,7.72144 24.35242,19.3035c0,11.58212 -9.76936,19.30353 -24.35242,19.30353z" id="CompoundPath-1-2"/><path d="M-15.46419,344.78507h27.4904v51.47632h16.17445v-51.47632h27.49666v-12.86906h-71.16151z" id="Path-1-1"/><path d="M-0.65713,396.26139l-32.34922,-64.34538h-22.64446l-32.34919,64.34538h18.08319l25.58824,-50.89721l25.58805,50.89721z" id="Path-1-2"/><path d="M313.47718,396.26139l-32.35153,-64.34538h-22.64376l-32.34856,64.34538h18.08174l25.58871,-50.89721l25.58871,50.89721z" id="Path-1-3"/></g></g></g></g></svg>