<?xml version="1.0" encoding="UTF-8" standalone="no"?>
<svg
   width="170"
   height="21"
   viewBox="0 0 170 21"
   fill="none"
   version="1.1"
   id="svg7"
   sodipodi:docname="2892bed2-af8f-48c1-9e92-753623e2c283.svg"
   xmlns:inkscape="http://www.inkscape.org/namespaces/inkscape"
   xmlns:sodipodi="http://sodipodi.sourceforge.net/DTD/sodipodi-0.dtd"
   xmlns="http://www.w3.org/2000/svg"
   xmlns:svg="http://www.w3.org/2000/svg">
  <defs
     id="defs7" />
  <sodipodi:namedview
     id="namedview7"
     pagecolor="#ffffff"
     bordercolor="#000000"
     borderopacity="0.25"
     inkscape:showpageshadow="2"
     inkscape:pageopacity="0.0"
     inkscape:pagecheckerboard="0"
     inkscape:deskcolor="#d1d1d1" />
  <path
     d="M88.4889 13.1498L75.7225 0.488281H70.8124V20.0217H75.7225V7.34646L88.4889 20.0217H93.3991V0.488281H88.4889V13.1498Z"
     fill="black"
     id="path1" />
  <path
     d="M161.867 0.507815L148.396 0.488281V20.0217H153.306V12.9897H161.867C168.176 12.9897 170 9.71977 170 6.78194C170 3.81287 168.176 0.507815 161.867 0.507815ZM165.09 6.77218C165.09 7.94418 164.355 9.08493 162.001 9.08493H153.306V4.39692H162.001C164.357 4.39692 165.09 5.54353 165.09 6.74092V6.77218Z"
     fill="black"
     id="path2" />
  <path
     d="M145.449 6.7839C145.449 3.81287 143.624 0.507815 137.316 0.507815L123.844 0.488281V20.0217H128.754V12.9897H134.809L139.541 20.0217H145.449L140.488 12.6498C144.259 11.7395 145.449 9.1533 145.449 6.7839ZM140.539 6.77218C140.539 7.94418 139.802 9.08493 137.449 9.08493H128.754V4.39692H137.449C139.806 4.39692 140.539 5.54353 140.539 6.74092V6.77218Z"
     fill="black"
     id="path3" />
  <path
     d="M55.9757 0C48.5496 0 43.7003 4.03169 43.7003 10.255C43.7003 16.4784 48.5535 20.5101 55.9757 20.5101C63.4548 20.5101 68.251 16.4784 68.251 10.255C68.251 4.03169 63.4391 0 55.9757 0ZM55.9757 16.115C51.5506 16.115 48.6105 13.771 48.6105 10.255C48.6105 6.73902 51.5565 4.39501 55.9757 4.39501C60.3948 4.39501 63.3684 6.73902 63.3684 10.255C63.3684 13.771 60.4027 16.115 55.9757 16.115Z"
     fill="black"
     id="path4" />
  <path
     d="M22.0198 4.39496H30.3651V20.0217H35.2752V4.39496H43.6224V0.488281H22.0198V4.39496Z"
     fill="black"
     id="path5" />
  <path
     d="M26.5148 20.0217L16.6945 0.488281H9.82029L0 20.0217H5.48954L13.2574 4.57076L21.0252 20.0217H26.5148Z"
     fill="black"
     id="path6" />
  <path
     d="M121.877 20.0217L112.056 0.488281H105.182L95.3619 20.0217H100.851L108.619 4.57076L116.387 20.0217H121.877Z"
     fill="black"
     id="path7" />
</svg>
