<?xml version="1.0" encoding="UTF-8" standalone="no"?>
<svg xmlns="http://www.w3.org/2000/svg" xmlns:xlink="http://www.w3.org/1999/xlink" version="1.1" width="700" height="700" viewBox="-158 21.5 700 700"><g id="document" fill-opacity="0.01" fill="#ffffff" fill-rule="nonzero" font-family="none" font-weight="none" font-size="none"><rect x="-158" y="15.35714" transform="scale(1,1.4)" width="700" height="500" id="Shape-1-1"/></g><g fill-opacity="0" fill="#000000" fill-rule="nonzero" stroke="#ffffff" stroke-width="1" stroke-linecap="butt" stroke-linejoin="miter" stroke-miterlimit="10" font-family="none" font-weight="none" font-size="none"><g id="stage"><g id="layer1-1"><g id="Group-1"><path d="M14.8533,241.73248c138.14169,0 276.28338,0 418.61118,0c0,65.18594 0,130.37188 0,197.53315c-138.14169,0 -276.28338,0 -418.61118,0c0,-65.18594 0,-130.37188 0,-197.53315z" id="Path-1"/><path d="M144.30335,337.09331c3.36234,4.54099 3.36234,4.541 3.8089,11.28153c-0.00867,2.64584 -0.01734,5.29168 -0.02627,8.01769c0.00867,2.64584 0.01734,5.29168 0.02627,8.01769c-0.44656,6.74053 -0.44656,6.74053 -3.8089,11.28152c-3.51995,0.6031 -3.51995,0.60311 -7.56526,0.56763c-1.33495,0.01171 -2.66991,0.02341 -4.04532,0.03547c-3.51995,-0.6031 -3.51995,-0.6031 -6.88229,-5.14409c-0.50566,-6.16404 -0.50566,-6.16404 -0.52536,-13.48107c-0.02817,-2.40877 -0.05634,-4.81753 -0.08537,-7.29929c0.61074,-6.46559 0.61073,-6.46559 2.73846,-10.68729c5.35304,-4.75456 10.1037,-3.26093 16.36514,-2.58979z" id="Path-1-1"/><path d="M221.63714,337.09331c13.6357,-1.08327 13.6357,-1.08327 19.43852,3.12193c3.68038,9.0766 3.80528,18.5448 2.41668,28.66502c-2.02266,4.0798 -2.02266,4.07979 -5.04351,6.81148c-4.17009,0.66518 -4.17008,0.66519 -8.72106,0.42572c-2.66991,-0.14049 -5.33982,-0.28098 -8.09063,-0.42572c0,-12.73748 0,-25.47496 0,-38.59843z" id="Path-1-2"/><path d="M97.2306,337.09331c14.50009,-0.56762 14.50009,-0.56763 20.17404,4.54099c0.61074,6.74053 0.61073,6.74054 0.52536,14.75823c-0.0065,2.64584 -0.013,5.29168 -0.0197,8.01769c-0.50566,6.74053 -0.50566,6.74053 -3.868,11.28152c-4.00591,0.44346 -4.00591,0.44346 -8.61599,0.28382c-2.70458,-0.09366 -5.40917,-0.18732 -8.19571,-0.28382c0,-12.73748 0,-25.47496 0,-38.59843z" id="Path-1-3"/><path d="M282.15924,337.09331c2.70458,-0.14049 5.40916,-0.28098 8.1957,-0.42572c1.52133,-0.07902 3.04265,-0.15804 4.61008,-0.23946c1.98293,0.32927 1.98292,0.32926 4.00591,0.66518c3.89215,7.88479 3.79026,11.18764 3.36234,20.43447c-0.55479,2.24779 -1.10957,4.49557 -1.68117,6.81148c0.66234,5.98967 0.66234,5.98967 1.68117,11.35248c-1.66436,0 -3.32872,0 -5.04351,0c-1.10957,-4.49558 -2.21914,-8.99116 -3.36234,-13.62297c-2.21914,0 -4.43828,0 -6.72467,0c0,4.49558 0,8.99116 0,13.62297c-1.66436,0 -3.32872,0 -5.04351,0c0,-12.73748 0,-25.47496 0,-38.59843z" id="Path-1-4"/><path d="M189.69492,337.09331c6.72468,2.2705 6.72467,2.2705 9.22016,6.96227c1.97012,5.24757 3.94025,10.49512 5.91037,15.74269c0.55479,-7.49264 1.10957,-14.98527 1.68117,-22.70496c1.66436,0 3.32871,0 5.0435,0c0,12.73748 0,25.47496 0,38.59843c-2.21914,0 -4.43828,0 -6.72467,0c-2.77393,-6.74337 -5.54786,-13.48674 -8.40585,-20.43446c-0.55479,6.74337 -1.10957,13.48674 -1.68117,20.43446c-1.66436,0 -3.32872,0 -5.04351,0c0,-12.73748 0,-25.47496 0,-38.59843z" id="Path-1-5"/><path d="M258.62287,337.09331c2.21914,0 4.43828,0 6.72467,0c1.41083,5.15135 2.81011,10.30754 4.20293,15.46776c0.40092,1.45902 0.80183,2.91802 1.2149,4.42125c1.76192,6.56076 2.98802,11.67261 2.98802,18.70942c-1.66436,0 -3.32872,0 -5.04351,0c-0.55479,-2.24779 -1.10957,-4.49557 -1.68117,-6.81148c-3.8835,-0.74926 -7.767,-1.49853 -11.76818,-2.2705c0,2.99705 0,5.99411 0,9.08198c-1.66436,0 -3.32872,0 -5.04351,0c0.90368,-14.03531 4.27996,-25.71758 8.40585,-38.59843z" id="Path-1-6"/><path d="M157.7527,337.09331c1.66436,0 3.32872,0 5.04351,0c0,10.48969 0,20.97939 0,31.78695c3.8835,0 7.76701,0 11.76819,0c0,-10.48969 0,-20.97939 0,-31.78695c1.66436,0 3.32871,0 5.0435,0c0.09051,5.5823 0.15735,11.16193 0.21015,16.74491c0.02817,1.58633 0.05634,3.17267 0.08537,4.80707c0.02969,4.17042 -0.1223,8.34142 -0.29552,12.50546c-3.36234,4.54099 -3.36233,4.54099 -6.88228,5.14409c-1.33495,-0.01171 -2.66991,-0.02341 -4.04532,-0.03547c-1.33495,0.01171 -2.6699,0.02341 -4.04531,0.03547c-3.51995,-0.6031 -3.51995,-0.6031 -6.88229,-5.14409c-0.24374,-5.85934 -0.31399,-11.46473 -0.21014,-17.31253c0.01517,-1.60389 0.03034,-3.20778 0.04597,-4.86028c0.03964,-3.96187 0.09994,-7.92335 0.16417,-11.88463z" id="Path-1-7"/><path d="M137.57867,343.62099c5.04351,0.28381 5.04351,0.28381 6.72468,2.55431c0.12114,3.82826 0.14098,7.66293 0.10507,11.49438c-0.01517,2.08682 -0.03034,4.17364 -0.04597,6.32369c-0.0195,1.61267 -0.039,3.22535 -0.0591,4.88689c-4.43829,0 -8.87658,0 -13.44936,0c-0.04519,-3.73666 -0.0779,-7.4736 -0.10507,-11.21058c-0.0195,-2.08096 -0.039,-4.16193 -0.0591,-6.30595c0.25111,-7.9358 0.9044,-7.40598 6.88885,-7.74274z" id="Path-1-8"/><path d="M287.20275,343.9048c5.04351,0 10.08701,0 15.13052,0c0.12487,7.58919 0.11006,13.17703 -1.68117,20.43446c0.66234,5.98967 0.66234,5.98967 1.68117,11.35248c-1.66436,0 -3.32872,0 -5.04351,0c-0.41609,-2.20096 -0.83217,-4.40192 -1.26087,-6.66958c-0.69348,-2.29462 -1.38697,-4.58924 -2.10147,-6.95339c-3.41687,-2.19959 -3.41686,-2.19959 -6.72467,-2.2705c0,-5.24485 0,-10.48969 0,-15.89347z" id="Path-1-9"/><path d="M327.55081,337.09331c1.66436,0 3.32872,0 5.04351,0c-1.77994,7.72679 -3.37751,13.65371 -6.72468,20.43447c-0.75887,4.65272 -0.75887,4.65272 -1.05073,9.5077c-0.20804,2.85657 -0.41609,5.71313 -0.63044,8.65626c-1.66436,0 -3.32872,0 -5.04351,0c-0.18421,-1.34341 -0.36841,-2.6868 -0.5582,-4.07092c-1.5734,-10.59016 -3.3541,-18.61292 -7.84764,-27.71602c0,-1.49853 0,-2.99705 0,-4.54099c1.66436,0 3.32872,0 5.04351,0c1.10957,4.49558 2.21913,8.99116 3.36233,13.62297c3.93492,-4.83117 6.2321,-9.3445 8.40585,-15.89347z" id="Path-1-10"/><path d="M226.68065,343.9048c2.77393,0 5.54785,0 8.40584,0c3.36234,4.54099 3.36234,4.54099 3.7498,8.87799c-0.20066,13.57469 -0.20066,13.5747 -2.06863,16.09747c-3.36164,0.09265 -6.72543,0.09659 -10.08701,0c0,-8.2419 0,-16.48381 0,-24.97546z" id="Path-1-11"/><path d="M258.62287,337.09331c2.21914,0 4.43828,0 6.72467,0c0.55479,2.99705 1.10957,5.99412 1.68117,9.08199c-1.10957,0 -2.21914,0 -3.36234,0c0.55479,5.24485 1.10957,10.48969 1.68117,15.89347c-2.77393,0 -5.54785,0 -8.40584,0c-1.99639,-3.54765 -1.99639,-3.54766 -3.36234,-9.08199c2.31161,-8.51436 2.31161,-8.51436 5.04351,-15.89347z" id="Path-1-12"/><path d="M157.7527,337.09331c1.66436,0 3.32872,0 5.04351,0c0,11.23895 0,22.47791 0,34.05744c3.32872,0 6.65743,0 10.08702,0c0,0.74926 0,1.49853 0,2.2705c-10.34313,0.22173 -10.34314,0.22173 -13.44936,0c-1.68117,-2.2705 -1.68116,-2.2705 -1.84534,-9.94229c0.01122,-3.16635 0.03132,-6.33266 0.0591,-9.49883c0.00758,-1.61414 0.01517,-3.22828 0.02298,-4.89133c0.01987,-3.99858 0.05003,-7.99706 0.08209,-11.99549z" id="Path-1-13"/><path d="M100.59294,357.52778c3.8835,0 7.76701,0 11.76819,0c0,3.74632 0,7.49264 0,11.35248c-3.8835,0 -7.76701,0 -11.76819,0c0,-3.74632 0,-7.49264 0,-11.35248z" id="Path-1-14"/><path d="M287.20275,343.9048c3.32872,0 6.65742,0 10.08701,0c0,3.74632 0,7.49264 0,11.35248c-3.32872,0 -6.65742,0 -10.08701,0c0,-3.74632 0,-7.49264 0,-11.35248z" id="Path-1-15"/><path d="M129.17282,343.9048c0.55479,0 1.10957,0 1.68117,0c0.10186,1.75023 0.20371,3.50047 0.30865,5.30374c0.14086,2.27706 0.28173,4.55412 0.42686,6.90018c0.20479,3.39803 0.2048,3.39803 0.41373,6.8647c0.27918,5.85978 0.27918,5.85978 2.2131,10.44783c-2.21914,0 -4.43829,0 -6.72468,0c-0.04517,-4.49352 -0.07789,-8.98728 -0.10507,-13.48107c-0.0195,-2.50242 -0.039,-5.00485 -0.0591,-7.5831c0.16418,-6.18178 0.16417,-6.18178 1.84534,-8.45228z" id="Path-1-16"/><path d="M100.59294,343.9048c3.8835,0 7.76701,0 11.76819,0c-0.55479,2.99705 -1.10957,5.99411 -1.68117,9.08198c-3.32872,0 -6.65743,0 -10.08702,0c0,-2.99705 0,-5.99411 0,-9.08198z" id="Path-1-17"/><path d="M260.30404,343.9048c1.10957,0.74926 2.21913,1.49853 3.36233,2.2705c1.05073,6.95339 1.05073,6.95339 1.68117,13.62297c-2.21914,0 -4.43828,0 -6.72467,0c0.55479,-5.24485 1.10957,-10.48969 1.68117,-15.89347z" id="Path-1-18"/></g></g></g></g></svg>