<?xml version="1.0" encoding="UTF-8"?>
<svg version="1.1" xmlns="http://www.w3.org/2000/svg" width="249" height="87">
<path d="M0 0 C82.17 0 164.34 0 249 0 C249 28.71 249 57.42 249 87 C166.83 87 84.66 87 0 87 C0 58.29 0 29.58 0 0 Z " fill="#FEFEFE" transform="translate(0,0)"/>
<path d="M0 0 C2 2 2 2 2.265625 4.96875 C2.26046875 6.1340625 2.2553125 7.299375 2.25 8.5 C2.25515625 9.6653125 2.2603125 10.830625 2.265625 12.03125 C2 15 2 15 0 17 C-2.09375 17.265625 -2.09375 17.265625 -4.5 17.25 C-5.2940625 17.25515625 -6.088125 17.2603125 -6.90625 17.265625 C-9 17 -9 17 -11 15 C-11.30078125 12.28515625 -11.30078125 12.28515625 -11.3125 9.0625 C-11.32925781 8.00160156 -11.34601563 6.94070312 -11.36328125 5.84765625 C-11 3 -11 3 -9.734375 1.140625 C-6.55025565 -0.95343547 -3.72445473 -0.29559165 0 0 Z " fill="#636363" transform="translate(77,42)"/>
<path d="M0 0 C8.11084337 -0.47710843 8.11084337 -0.47710843 11.5625 1.375 C13.75167671 5.37262704 13.82597221 9.54272657 13 14 C11.796875 15.796875 11.796875 15.796875 10 17 C7.51953125 17.29296875 7.51953125 17.29296875 4.8125 17.1875 C3.224375 17.125625 1.63625 17.06375 0 17 C0 11.39 0 5.78 0 0 Z " fill="#5E5E5E" transform="translate(123,42)"/>
<path d="M0 0 C8.625 -0.25 8.625 -0.25 12 2 C12.36328125 4.96875 12.36328125 4.96875 12.3125 8.5 C12.30863281 9.6653125 12.30476563 10.830625 12.30078125 12.03125 C12 15 12 15 10 17 C7.6171875 17.1953125 7.6171875 17.1953125 4.875 17.125 C3.26625 17.08375 1.6575 17.0425 0 17 C0 11.39 0 5.78 0 0 Z " fill="#545454" transform="translate(49,42)"/>
<path d="M0 0 C1.60875 -0.061875 3.2175 -0.12375 4.875 -0.1875 C5.77992188 -0.22230469 6.68484375 -0.25710937 7.6171875 -0.29296875 C8.79667969 -0.14794922 8.79667969 -0.14794922 10 0 C12.3151437 3.47271555 12.25453763 4.92739797 12 9 C11.67 9.99 11.34 10.98 11 12 C11.39397335 14.63804589 11.39397335 14.63804589 12 17 C11.01 17 10.02 17 9 17 C8.34 15.02 7.68 13.04 7 11 C5.68 11 4.36 11 3 11 C3 12.98 3 14.96 3 17 C2.01 17 1.02 17 0 17 C0 11.39 0 5.78 0 0 Z " fill="#575757" transform="translate(159,42)"/>
<path d="M0 0 C4 1 4 1 5.484375 3.06640625 C6.65625 5.37760417 7.828125 7.68880208 9 10 C9.33 6.7 9.66 3.4 10 0 C10.99 0 11.98 0 13 0 C13 5.61 13 11.22 13 17 C11.68 17 10.36 17 9 17 C7.35 14.03 5.7 11.06 4 8 C3.67 10.97 3.34 13.94 3 17 C2.01 17 1.02 17 0 17 C0 11.39 0 5.78 0 0 Z " fill="#5E5E5E" transform="translate(104,42)"/>
<path d="M0 0 C1.32 0 2.64 0 4 0 C4.83919398 2.26882087 5.67151724 4.53977027 6.5 6.8125 C6.73847656 7.45509766 6.97695312 8.09769531 7.22265625 8.75976562 C8.27068746 11.64933739 9 13.90076061 9 17 C8.01 17 7.02 17 6 17 C5.67 16.01 5.34 15.02 5 14 C2.69 13.67 0.38 13.34 -2 13 C-2 14.32 -2 15.64 -2 17 C-2.99 17 -3.98 17 -5 17 C-4.46246904 10.81839396 -2.45417612 5.673142 0 0 Z " fill="#545454" transform="translate(145,42)"/>
<path d="M0 0 C0.99 0 1.98 0 3 0 C3 4.62 3 9.24 3 14 C5.31 14 7.62 14 10 14 C10 9.38 10 4.76 10 0 C10.99 0 11.98 0 13 0 C13.05383848 2.45862401 13.09359038 4.9160755 13.125 7.375 C13.14175781 8.07367188 13.15851563 8.77234375 13.17578125 9.4921875 C13.19344267 11.32897486 13.10303261 13.16601963 13 15 C11 17 11 17 8.90625 17.265625 C8.1121875 17.26046875 7.318125 17.2553125 6.5 17.25 C5.7059375 17.25515625 4.911875 17.2603125 4.09375 17.265625 C2 17 2 17 0 15 C-0.14497985 12.41935871 -0.18677545 9.95056116 -0.125 7.375 C-0.11597656 6.66859375 -0.10695313 5.9621875 -0.09765625 5.234375 C-0.07407603 3.48943902 -0.03820461 1.74467705 0 0 Z " fill="#606060" transform="translate(85,42)"/>
<path d="M0 0 C3 0.125 3 0.125 4 1.125 C4.07205511 2.81108966 4.08386068 4.50000659 4.0625 6.1875 C4.05347656 7.10660156 4.04445313 8.02570312 4.03515625 8.97265625 C4.02355469 9.68292969 4.01195313 10.39320312 4 11.125 C1.36 11.125 -1.28 11.125 -4 11.125 C-4.02688151 9.47925434 -4.04634123 7.83338587 -4.0625 6.1875 C-4.07410156 5.27097656 -4.08570312 4.35445312 -4.09765625 3.41015625 C-3.94828951 -0.08502547 -3.55969594 0.14832066 0 0 Z " fill="#EFEFEF" transform="translate(73,44.875)"/>
<path d="M0 0 C3 0 6 0 9 0 C9.07427838 3.34252724 9.06546953 5.8035914 8 9 C8.39397335 11.63804589 8.39397335 11.63804589 9 14 C8.01 14 7.02 14 6 14 C5.7525 13.030625 5.505 12.06125 5.25 11.0625 C4.8375 10.051875 4.425 9.04125 4 8 C1.96756452 7.03122943 1.96756452 7.03122943 0 7 C0 4.69 0 2.38 0 0 Z " fill="#616161" transform="translate(162,45)"/>
<path d="M0 0 C0.99 0 1.98 0 3 0 C1.94124926 3.40312738 0.99097846 6.01353231 -1 9 C-1.45139459 11.0492094 -1.45139459 11.0492094 -1.625 13.1875 C-1.74875 14.445625 -1.8725 15.70375 -2 17 C-2.99 17 -3.98 17 -5 17 C-5.10957031 16.40832031 -5.21914062 15.81664062 -5.33203125 15.20703125 C-6.267925 10.54278029 -7.32713255 7.00930117 -10 3 C-10 2.34 -10 1.68 -10 1 C-9.01 1 -8.02 1 -7 1 C-6.34 2.98 -5.68 4.96 -5 7 C-2.65941363 4.87219421 -1.29299694 2.88437779 0 0 Z " fill="#555555" transform="translate(186,42)"/>
<path d="M0 0 C1.65 0 3.3 0 5 0 C7 2 7 2 7.23046875 3.91015625 C7.11111111 9.88888889 7.11111111 9.88888889 6 11 C4.00041636 11.04080783 1.99954746 11.04254356 0 11 C0 7.37 0 3.74 0 0 Z " fill="#FBFBFB" transform="translate(126,45)"/>
<path d="M0 0 C1.32 0 2.64 0 4 0 C4.33 1.32 4.66 2.64 5 4 C4.34 4 3.68 4 3 4 C3.33 6.31 3.66 8.62 4 11 C2.35 11 0.7 11 -1 11 C-2.1875 9.4375 -2.1875 9.4375 -3 7 C-1.625 3.25 -1.625 3.25 0 0 Z " fill="#676767" transform="translate(145,42)"/>
<path d="M0 0 C0.99 0 1.98 0 3 0 C3 4.95 3 9.9 3 15 C4.98 15 6.96 15 9 15 C9 15.33 9 15.66 9 16 C2.84765625 16.09765625 2.84765625 16.09765625 1 16 C0 15 0 15 -0.09765625 11.62109375 C-0.09098369 10.22652923 -0.07902532 8.83198257 -0.0625 7.4375 C-0.05798828 6.72658203 -0.05347656 6.01566406 -0.04882812 5.28320312 C-0.03700864 3.52209987 -0.01907263 1.76103964 0 0 Z " fill="#575757" transform="translate(85,42)"/>
<path d="M0 0 C2.31 0 4.62 0 7 0 C7 1.65 7 3.3 7 5 C4.69 5 2.38 5 0 5 C0 3.35 0 1.7 0 0 Z " fill="#E7E7E7" transform="translate(51,51)"/>
<path d="M0 0 C1.98 0 3.96 0 6 0 C6 1.65 6 3.3 6 5 C4.02 5 2.04 5 0 5 C0 3.35 0 1.7 0 0 Z " fill="#FCFCFC" transform="translate(162,45)"/>
<path d="M0 0 C0.33 0 0.66 0 1 0 C1.06058594 0.77085938 1.12117188 1.54171875 1.18359375 2.3359375 C1.26738281 3.33882812 1.35117188 4.34171875 1.4375 5.375 C1.55931641 6.87160156 1.55931641 6.87160156 1.68359375 8.3984375 C1.84965626 10.97927613 1.84965626 10.97927613 3 13 C1.68 13 0.36 13 -1 13 C-1.02686553 11.02090602 -1.04633375 9.04171029 -1.0625 7.0625 C-1.07410156 5.96035156 -1.08570312 4.85820313 -1.09765625 3.72265625 C-1 1 -1 1 0 0 Z " fill="#454545" transform="translate(68,45)"/>
<path d="M0 0 C2.31 0 4.62 0 7 0 C6.67 1.32 6.34 2.64 6 4 C4.02 4 2.04 4 0 4 C0 2.68 0 1.36 0 0 Z " fill="#E0E0E0" transform="translate(51,45)"/>
<path d="M0 0 C0.66 0.33 1.32 0.66 2 1 C2.625 4.0625 2.625 4.0625 3 7 C1.68 7 0.36 7 -1 7 C-0.67 4.69 -0.34 2.38 0 0 Z " fill="#E5E5E5" transform="translate(146,45)"/>
</svg>
