<?xml version="1.0" standalone="no"?>
<!DOCTYPE svg PUBLIC "-//W3C//DTD SVG 20010904//EN"
 "http://www.w3.org/TR/2001/REC-SVG-20010904/DTD/svg10.dtd">
<svg version="1.0" xmlns="http://www.w3.org/2000/svg"
 width="500.000000pt" height="500.000000pt" viewBox="0 0 500.000000 500.000000"
 preserveAspectRatio="xMidYMid meet">

<g transform="translate(0.000000,500.000000) scale(0.100000,-0.100000)"
fill="#000000" stroke="none">
<path d="M0 2500 l0 -2500 2500 0 2500 0 0 2500 0 2500 -2500 0 -2500 0 0
-2500z m2677 1668 c12 -13 77 -120 145 -238 146 -252 511 -886 546 -948 37
-65 52 -72 167 -72 65 0 105 -4 113 -12 9 -9 12 -84 12 -274 0 -260 0 -263
-22 -278 -19 -14 -67 -16 -316 -16 l-294 0 -30 33 c-17 17 -84 124 -148 237
-116 202 -118 205 -153 208 -42 4 -30 20 -186 -248 -56 -96 -115 -187 -132
-202 -29 -28 -30 -28 -177 -28 -122 0 -153 3 -179 18 -17 9 -160 144 -317 299
l-286 283 0 289 c0 250 2 292 16 305 13 14 54 16 295 16 l280 0 24 25 25 24 0
285 c0 245 2 287 16 300 13 14 54 16 298 16 280 0 283 0 303 -22z m-1872
-2560 c48 -112 89 -209 92 -215 4 -9 -9 -13 -44 -13 -49 0 -50 0 -62 40 l-12
40 -73 0 -73 0 -16 -40 c-14 -37 -18 -40 -55 -40 l-40 0 91 215 c51 118 95
215 98 215 4 0 46 -91 94 -202z m310 72 l140 -130 3 125 3 125 39 0 40 0 0
-215 c0 -118 -3 -215 -7 -215 -5 1 -69 57 -143 125 l-135 123 -3 -119 -3 -119
-44 0 -45 0 0 215 c0 118 3 215 8 215 4 -1 70 -59 147 -130z m499 -17 l121
-112 3 124 3 125 39 0 40 0 0 -215 c0 -118 -2 -215 -5 -215 -2 0 -66 56 -142
125 l-138 125 -3 -120 -3 -120 -39 0 -40 0 0 217 0 216 22 -19 c12 -10 76 -69
142 -131z m551 -55 c48 -112 89 -209 92 -215 4 -9 -9 -13 -44 -13 -49 0 -50 0
-62 40 l-12 40 -73 0 -73 0 -16 -40 c-14 -37 -18 -40 -55 -40 l-40 0 91 215
c51 118 95 215 98 215 4 0 46 -91 94 -202z m605 71 l140 -131 0 126 0 126 40
0 40 0 0 -217 0 -216 -22 19 c-13 10 -77 68 -143 128 l-120 110 -3 -122 -3
-122 -39 0 -40 0 0 215 c0 118 2 215 5 215 3 0 69 -59 145 -131z m1665 -71
c48 -112 89 -209 92 -215 4 -9 -9 -13 -44 -13 -49 0 -50 0 -62 40 l-12 40 -73
0 -73 0 -16 -40 c-14 -37 -18 -40 -55 -40 l-40 0 91 215 c51 118 95 215 98
215 4 0 46 -91 94 -202z m-1895 152 l0 -40 -50 0 -50 0 0 -170 0 -170 -40 0
-40 0 0 170 0 170 -50 0 -50 0 0 40 0 40 140 0 140 0 0 -40z m850 0 l0 -40
-105 0 -105 0 0 -45 0 -45 90 0 90 0 0 -40 0 -40 -90 0 -90 0 0 -45 0 -45 105
0 105 0 0 -40 0 -40 -145 0 -145 0 0 210 0 210 145 0 145 0 0 -40z m340 0 l0
-40 -50 0 -50 0 0 -170 0 -170 -40 0 -40 0 0 170 0 170 -50 0 -50 0 0 40 0 40
140 0 140 0 0 -40z m272 30 c97 -27 128 -160 53 -230 l-24 -22 50 -79 49 -79
-48 0 -49 0 -44 70 c-37 59 -48 70 -71 70 -28 0 -28 0 -28 -70 l0 -70 -40 0
-40 0 0 210 0 210 78 0 c42 0 94 -5 114 -10z"/>
<path d="M2129 3511 l-24 -19 0 -271 c0 -246 2 -272 18 -288 16 -16 42 -18
235 -21 209 -3 219 -2 245 18 35 28 35 61 -1 125 -97 174 -266 461 -276 467
-6 4 -48 8 -92 8 -66 0 -86 -4 -105 -19z"/>
<path d="M687 1584 c-9 -26 -15 -49 -13 -51 2 -2 20 -3 39 -1 l34 3 -21 48
-21 49 -18 -48z"/>
<path d="M2047 1584 c-9 -26 -15 -49 -13 -51 2 -2 20 -3 39 -1 l34 3 -21 48
-21 49 -18 -48z"/>
<path d="M4317 1584 c-9 -26 -15 -49 -13 -51 2 -2 20 -3 39 -1 l34 3 -21 48
-21 49 -18 -48z"/>
<path d="M3890 1660 l0 -60 43 0 c50 0 77 22 77 63 0 38 -25 57 -76 57 l-44 0
0 -60z"/>
</g>
</svg>
