<?xml version="1.0" standalone="no"?>
<!DOCTYPE svg PUBLIC "-//W3C//DTD SVG 20010904//EN"
 "http://www.w3.org/TR/2001/REC-SVG-20010904/DTD/svg10.dtd">
<svg version="1.0" xmlns="http://www.w3.org/2000/svg"
 width="500.000000pt" height="500.000000pt" viewBox="0 0 500.000000 500.000000"
 preserveAspectRatio="xMidYMid meet">

<g transform="translate(0.000000,500.000000) scale(0.100000,-0.100000)"
fill="#000000" stroke="none">
<path d="M0 2500 l0 -2500 2500 0 2500 0 0 2500 0 2500 -2500 0 -2500 0 0
-2500z m1140 870 c10 -5 42 -52 71 -102 29 -51 118 -205 197 -343 79 -137 196
-340 259 -450 64 -110 123 -208 131 -217 12 -15 32 -18 108 -18 71 0 96 -4
108 -16 14 -13 16 -49 16 -241 0 -197 -2 -229 -17 -245 -15 -17 -37 -18 -280
-18 -153 0 -272 4 -283 10 -10 5 -29 29 -42 52 -122 214 -194 336 -206 351 -8
9 -25 17 -37 17 -30 0 -39 -11 -155 -210 -56 -96 -113 -185 -127 -197 -23 -22
-33 -23 -161 -23 -88 1 -145 5 -159 13 -11 7 -137 127 -280 267 l-258 255 -3
256 c-3 226 -1 259 13 273 14 14 49 16 265 16 229 0 250 1 271 19 24 19 24 20
27 277 2 163 7 263 14 271 13 16 499 19 528 3z m1200 -1326 l0 106 30 0 30 0
0 -181 0 -181 -89 81 c-48 44 -94 88 -101 96 -7 9 -21 20 -30 25 -15 8 -16 0
-12 -90 l5 -100 -37 0 -36 0 0 181 0 181 120 -112 120 -112 0 106z m303 -24
l87 -85 0 108 0 107 35 0 35 0 0 -180 c0 -99 -3 -180 -6 -180 -3 0 -57 48
-120 106 l-114 106 0 -101 0 -101 -35 0 -35 0 0 182 0 182 33 -29 c17 -16 71
-68 120 -115z m432 -40 c41 -96 75 -175 75 -177 0 -2 -18 -3 -39 -3 -36 0 -40
3 -51 35 -11 35 -12 35 -69 35 -56 0 -57 -1 -70 -35 -10 -29 -17 -35 -42 -35
-16 0 -29 3 -29 8 -1 10 144 351 148 348 1 -2 36 -81 77 -176z m492 68 l113
-113 0 108 0 107 35 0 35 0 0 -180 c0 -99 -2 -180 -4 -180 -2 0 -55 47 -118
104 l-113 105 -3 -100 -3 -99 -34 0 -35 0 0 180 c0 99 3 180 7 180 4 0 58 -51
120 -112z m-187 67 c0 -34 -1 -35 -40 -35 l-40 0 0 -140 0 -140 -35 0 -35 0 0
140 0 140 -40 0 c-39 0 -40 1 -40 35 l0 35 115 0 115 0 0 -35z m680 0 l0 -35
-80 0 -80 0 0 -35 0 -35 75 0 75 0 0 -35 0 -35 -75 0 -75 0 0 -35 0 -35 85 0
85 0 0 -35 0 -35 -120 0 -120 0 0 175 0 175 115 0 115 0 0 -35z m290 0 c0 -35
0 -35 -45 -35 l-45 0 0 -140 0 -140 -30 0 -30 0 0 140 0 140 -40 0 c-39 0 -40
1 -40 35 l0 35 115 0 115 0 0 -35z m224 21 c46 -19 66 -52 66 -107 0 -36 -6
-55 -24 -76 l-25 -29 39 -62 39 -62 -39 0 c-37 0 -42 4 -75 55 -23 37 -41 55
-55 55 -18 0 -20 -7 -20 -55 l0 -55 -35 0 -35 0 0 175 0 175 65 0 c36 0 81 -6
99 -14z m340 -148 c38 -90 71 -169 73 -175 4 -9 -7 -13 -34 -13 -37 0 -41 3
-49 33 -9 31 -12 32 -67 35 -57 3 -58 3 -72 -32 -13 -30 -20 -36 -46 -36 -25
0 -30 3 -25 18 24 64 142 332 146 332 3 0 37 -73 74 -162z"/>
<path d="M657 2772 c-15 -16 -17 -49 -17 -259 0 -220 2 -241 18 -256 16 -15
46 -17 215 -17 184 0 198 1 217 20 11 11 20 29 20 40 0 11 -50 107 -111 213
-61 105 -122 211 -135 235 l-25 42 -83 0 c-68 0 -86 -3 -99 -18z"/>
<path d="M2976 1966 c-20 -49 -21 -46 14 -46 33 0 36 9 16 55 l-13 30 -17 -39z"/>
<path d="M4480 2030 c0 -50 0 -50 33 -50 40 0 57 15 57 50 0 35 -17 50 -57 50
-33 0 -33 0 -33 -50z"/>
<path d="M4822 1975 c-18 -40 -15 -55 13 -55 28 0 32 20 12 58 l-13 23 -12
-26z"/>
</g>
</svg>
