<?xml version="1.0" encoding="UTF-8"?>
<svg version="1.1" xmlns="http://www.w3.org/2000/svg" width="500" height="500">
<path d="M0 0 C165 0 330 0 500 0 C500 165 500 330 500 500 C335 500 170 500 0 500 C0 335 0 170 0 0 Z " fill="#FEFEFE" transform="translate(0,0)"/>
<path d="M0 0 C1.07008804 -0.00619858 2.14017609 -0.01239716 3.24269104 -0.01878357 C5.50463959 -0.02588414 7.76664038 -0.02270366 10.02856445 -0.01000977 C13.48812193 0.00384305 16.94496841 -0.03019868 20.40429688 -0.06835938 C22.60286525 -0.06931069 24.801437 -0.06745109 27 -0.0625 C28.03346054 -0.07575821 29.06692108 -0.08901642 30.13169861 -0.10267639 C37.29307584 -0.00992895 37.29307584 -0.00992895 41.0690918 2.80419922 C42.86993 5.29468735 44.56580842 7.72263872 46.08984375 10.390625 C46.89687744 11.78921753 46.89687744 11.78921753 47.72021484 13.21606445 C48.28820801 14.21855225 48.85620117 15.22104004 49.44140625 16.25390625 C50.3533374 17.83981567 50.3533374 17.83981567 51.28369141 19.45776367 C53.21794674 22.82352638 55.14208492 26.19495641 57.06640625 29.56640625 C59.5201902 33.83986472 61.98039815 38.10960491 64.44140625 42.37890625 C65.36699341 43.98741455 65.36699341 43.98741455 66.3112793 45.62841797 C71.55342571 54.72184061 76.90157186 63.75005011 82.2722168 72.76782227 C87.01104185 80.7398139 91.65040932 88.76275209 96.17456055 96.85864258 C97.44442426 99.1119398 98.74884847 101.34075663 100.06640625 103.56640625 C100.44804932 104.26032471 100.82969238 104.95424316 101.22290039 105.66918945 C102.48726741 107.8905804 102.48726741 107.8905804 105.06640625 110.56640625 C108.08399609 111.16379713 110.14597353 111.37694197 113.12890625 111.25390625 C120.30130225 111.07737508 120.30130225 111.07737508 123.26538086 112.97192383 C126.02559391 116.94817218 125.63889557 120.70852802 125.59765625 125.44140625 C125.60148315 126.40288574 125.60531006 127.36436523 125.60925293 128.35498047 C125.61197227 130.38575285 125.60460954 132.41656024 125.58789062 134.44726562 C125.5664815 137.55548195 125.58769171 140.66138681 125.61328125 143.76953125 C125.61063798 145.74349468 125.60551301 147.71745668 125.59765625 149.69140625 C125.60575317 150.62065918 125.6138501 151.54991211 125.62219238 152.50732422 C125.60327942 153.80887451 125.60327942 153.80887451 125.58398438 155.13671875 C125.580802 155.89742676 125.57761963 156.65813477 125.57434082 157.44189453 C124.84594098 160.48853498 123.52820297 161.67731497 121.06640625 163.56640625 C118.61367798 164.10798645 118.61367798 164.10798645 115.84228516 164.16333008 C114.80085358 164.19207718 113.759422 164.22082428 112.68643188 164.2504425 C111.00666763 164.26182503 111.00666763 164.26182503 109.29296875 164.2734375 C108.1364682 164.28912277 106.97996765 164.30480804 105.78842163 164.32096863 C103.34243091 164.34559657 100.89630769 164.35917554 98.45019531 164.36254883 C94.71064902 164.37882251 90.97672663 164.46429856 87.23828125 164.55273438 C84.86070076 164.56806734 82.48308933 164.57927139 80.10546875 164.5859375 C78.98967438 164.61984085 77.87388 164.6537442 76.72427368 164.68867493 C69.16460902 164.60042543 69.16460902 164.60042543 66.11898804 161.73280334 C64.53674621 159.41239188 63.27880654 157.09754271 62.06640625 154.56640625 C61.40583027 153.39835507 60.74143156 152.23245042 60.07177734 151.06958008 C59.50023926 149.98185303 58.92870117 148.89412598 58.33984375 147.7734375 C58.02487946 147.17891281 57.70991516 146.58438812 57.38540649 145.97184753 C56.3995168 144.1098954 55.41988212 142.24476354 54.44140625 140.37890625 C53.45520907 138.50266126 52.46752805 136.62725452 51.47598267 134.75382996 C50.581219 133.06275972 49.69156711 131.36898763 48.80224609 129.67504883 C45.88727058 123.43068539 45.88727058 123.43068539 40.55371094 119.84033203 C36.8615996 120.91810383 36.13854286 122.87752645 34.26953125 126.18359375 C33.93197815 126.76712616 33.59442505 127.35065857 33.24664307 127.95187378 C32.53256425 129.18950459 31.82641797 130.43174125 31.12768555 131.67810059 C29.76792664 134.09748299 28.36240857 136.48855661 26.95666504 138.88140869 C25.9245038 140.63889389 24.89691593 142.39896433 23.87109375 144.16015625 C23.53303711 144.74023438 23.19498047 145.3203125 22.84667969 145.91796875 C22.15024571 147.11675937 21.45629839 148.31699753 20.76464844 149.51855469 C19.74262184 151.29165199 18.71019507 153.05832704 17.67578125 154.82421875 C17.07733398 155.85691895 16.47888672 156.88961914 15.86230469 157.95361328 C13.53022637 161.34647654 11.70945197 163.15728299 7.67895508 164.16088867 C-11.38082242 166.03409839 -11.38082242 166.03409839 -18.83984375 160.44921875 C-22.55208309 157.14412824 -25.8505834 153.50193565 -29.07128906 149.72167969 C-31.87693808 146.47465956 -34.93512136 143.50728575 -37.99609375 140.50390625 C-38.96631601 139.51318746 -39.93637381 138.52230758 -40.90625 137.53125 C-45.68791187 132.76418919 -50.8143572 128.41176935 -56.1730957 124.31005859 C-62.67732021 119.01691719 -67.95439777 114.10771589 -69.27099609 105.52441406 C-69.80562401 98.72544554 -69.48039322 91.99097026 -69.12109375 85.19140625 C-69.06644245 82.82437253 -69.01886397 80.45716447 -68.97851562 78.08984375 C-68.86917598 73.79814321 -68.75549912 69.50839564 -68.52807617 65.22119141 C-68.48647873 64.36788239 -68.44488129 63.51457336 -68.40202332 62.63540649 C-67.93359375 60.56640625 -67.93359375 60.56640625 -64.93359375 58.56640625 C-62.84667969 58.30812073 -62.84667969 58.30812073 -60.41796875 58.29516602 C-59.50692383 58.2849794 -58.59587891 58.27479279 -57.65722656 58.26429749 C-56.67592773 58.26215744 -55.69462891 58.2600174 -54.68359375 58.2578125 C-52.61067418 58.23265982 -50.53775758 58.2072617 -48.46484375 58.18164062 C-45.19271564 58.15284708 -41.92063891 58.12883212 -38.6484375 58.11010742 C-35.49322207 58.08851261 -32.33860398 58.0490848 -29.18359375 58.0078125 C-27.71164551 58.00763878 -27.71164551 58.00763878 -26.20996094 58.00746155 C-25.29891602 57.99412277 -24.38787109 57.980784 -23.44921875 57.96704102 C-22.24700684 57.95943504 -22.24700684 57.95943504 -21.02050781 57.95167542 C-18.35082125 57.45881951 -17.48193095 56.78646579 -15.93359375 54.56640625 C-15.48920673 52.27831655 -15.48920673 52.27831655 -15.56469727 49.69946289 C-15.55781387 48.71156265 -15.55093048 47.72366241 -15.5438385 46.70582581 C-15.5499968 45.64016891 -15.55615509 44.57451202 -15.5625 43.4765625 C-15.54511913 41.22590993 -15.52753473 38.97525892 -15.50976562 36.72460938 C-15.49968233 33.1716018 -15.49609865 29.61869514 -15.49780273 26.06567383 C-15.49423934 22.63982852 -15.46691985 19.21476853 -15.4375 15.7890625 C-15.44568253 14.72542984 -15.45386505 13.66179718 -15.46229553 12.56593323 C-15.39043936 5.46983871 -15.39043936 5.46983871 -13.58544922 1.90039062 C-9.210849 -0.30020002 -4.82746383 -0.02312307 0 0 Z " fill="#020202" transform="translate(76.93359375,146.43359375)"/>
<path d="M0 0 C1.010625 -0.0103125 2.02125 -0.020625 3.0625 -0.03125 C7.54351383 0.77914612 10.08991193 3.21743029 12.6940918 6.88745117 C13.43912964 8.20193237 13.43912964 8.20193237 14.19921875 9.54296875 C14.76431152 10.52668457 15.3294043 11.51040039 15.91162109 12.52392578 C16.79068115 14.08989502 16.79068115 14.08989502 17.6875 15.6875 C18.92242988 17.85589446 20.1581121 20.02386063 21.39453125 22.19140625 C22.30452881 23.79459717 22.30452881 23.79459717 23.23291016 25.43017578 C24.82662348 28.1988068 26.46301525 30.93156357 28.13671875 33.65234375 C28.83631714 34.7976355 28.83631714 34.7976355 29.55004883 35.96606445 C30.40866693 37.36513573 31.27646537 38.75863073 32.1550293 40.14526367 C34.52510508 44.04942122 35.85206869 46.92504659 35 51.5 C33.22688327 53.4944608 31.762346 54.3908566 29.10543823 54.77124023 C26.70813748 54.8813952 24.3294002 54.88934247 21.9296875 54.86328125 C21.05224884 54.86377975 20.17481018 54.86427826 19.27078247 54.86479187 C17.41991913 54.86245505 15.56905238 54.85274964 13.71826172 54.83618164 C10.87829364 54.81252743 8.03926071 54.81563116 5.19921875 54.82226562 C3.40103605 54.81669078 1.60285731 54.80958212 -0.1953125 54.80078125 C-1.04739288 54.80169266 -1.89947327 54.80260406 -2.77737427 54.80354309 C-8.76895517 54.73104483 -8.76895517 54.73104483 -11 52.5 C-11.27415466 50.46414185 -11.27415466 50.46414185 -11.30639648 47.93017578 C-11.32238388 46.98224152 -11.33837128 46.03430725 -11.35484314 45.05764771 C-11.36020584 44.03057709 -11.36556854 43.00350647 -11.37109375 41.9453125 C-11.38012222 40.89221893 -11.3891507 39.83912537 -11.39845276 38.75411987 C-11.41297999 36.52312066 -11.42184811 34.29207861 -11.42553711 32.06103516 C-11.43742888 28.64542874 -11.4865883 25.23163081 -11.53710938 21.81640625 C-11.54657361 19.65105051 -11.55380864 17.48568364 -11.55859375 15.3203125 C-11.57812607 14.29729034 -11.59765839 13.27426819 -11.61778259 12.22024536 C-11.57271118 5.14377232 -11.57271118 5.14377232 -8.64868164 1.85693359 C-5.54720864 0.2680326 -3.47617863 -0.03547121 0 0 Z " fill="#FCFCFC" transform="translate(77,203.5)"/>
<path d="M0 0 C16.53846154 0 16.53846154 0 21.875 4.625 C23.64123718 8.35372294 23.55671397 11.95117109 23 16 C21.5625 18.9375 21.5625 18.9375 20 21 C19.67 21.66 19.34 22.32 19 23 C20.45206628 25.94364483 20.45206628 25.94364483 22.4375 29.125 C23.09621094 30.22070312 23.75492187 31.31640625 24.43359375 32.4453125 C24.95050781 33.28835938 25.46742188 34.13140625 26 35 C20.97725347 35.8811836 20.97725347 35.8811836 18 35 C15.84412448 32.57626019 14.26558467 30.0893949 12.640625 27.28515625 C11.05408245 24.55549715 11.05408245 24.55549715 7 24 C7 27.63 7 31.26 7 35 C4.69 35 2.38 35 0 35 C0 23.45 0 11.9 0 0 Z " fill="#070707" transform="translate(441,265)"/>
<path d="M0 0 C3.68130551 1.84065276 5.45238809 3.22666108 8.2578125 6.09765625 C9.04800781 6.89880859 9.83820313 7.69996094 10.65234375 8.52539062 C11.46832031 9.36263672 12.28429687 10.19988281 13.125 11.0625 C14.75038706 12.72222622 16.37788627 14.37988747 18.0078125 16.03515625 C18.72598145 16.7712915 19.44415039 17.50742676 20.18408203 18.26586914 C21.89521545 20.07023007 21.89521545 20.07023007 24 21 C24 14.4 24 7.8 24 1 C26.31 1 28.62 1 31 1 C31 12.88 31 24.76 31 37 C30.34 37 29.68 37 29 37 C29 36.34 29 35.68 29 35 C28.42765625 34.75636719 27.8553125 34.51273437 27.265625 34.26171875 C24.59566462 32.77482702 22.86170993 31.01916092 20.75 28.8125 C16.67424123 24.6353542 12.43594667 20.79071807 8 17 C7.67 23.27 7.34 29.54 7 36 C4.69 36 2.38 36 0 36 C0 24.12 0 12.24 0 0 Z " fill="#0D0D0D" transform="translate(344,264)"/>
<path d="M0 0 C9 6.75 9 6.75 12.0625 9.8671875 C12.65160156 10.46128418 13.24070312 11.05538086 13.84765625 11.66748047 C14.91306641 12.76020264 14.91306641 12.76020264 16 13.875 C18.31 16.22625 20.62 18.5775 23 21 C23.33 14.4 23.66 7.8 24 1 C26.31 1 28.62 1 31 1 C31 12.88 31 24.76 31 37 C27.44286117 35.22143058 25.88610569 34.08476818 23.25 31.3125 C19.89641662 27.86489092 16.41813999 24.66538932 12.76171875 21.54296875 C11.11143995 20.09760261 9.55120975 18.55120975 8 17 C7.67 23.27 7.34 29.54 7 36 C4.69 36 2.38 36 0 36 C0 24.12 0 12.24 0 0 Z " fill="#0C0C0C" transform="translate(249,264)"/>
<path d="M0 0 C7.87650086 6.75128645 7.87650086 6.75128645 10.9296875 9.61328125 C11.579375 10.22107422 12.2290625 10.82886719 12.8984375 11.45507812 C13.55070313 12.06802734 14.20296875 12.68097656 14.875 13.3125 C15.55046875 13.94478516 16.2259375 14.57707031 16.921875 15.22851562 C21.76971726 19.76971726 21.76971726 19.76971726 23 21 C23.33 14.4 23.66 7.8 24 1 C25.98 1 27.96 1 30 1 C30 12.88 30 24.76 30 37 C25.10634246 32.80543639 20.29270853 28.57894568 15.52734375 24.24609375 C12.73920951 21.76823102 9.86552677 19.38793898 7 17 C7 23.27 7 29.54 7 36 C4.69 36 2.38 36 0 36 C0 24.12 0 12.24 0 0 Z " fill="#070707" transform="translate(210,264)"/>
<path d="M0 0 C7.59 0 15.18 0 23 0 C23 2.31 23 4.62 23 7 C17.72 7 12.44 7 7 7 C7 9.31 7 11.62 7 14 C11.95 14 16.9 14 22 14 C22 16.31 22 18.62 22 21 C17.05 21 12.1 21 7 21 C7 23.31 7 25.62 7 28 C12.61 28 18.22 28 24 28 C24 30.31 24 32.62 24 35 C16.08 35 8.16 35 0 35 C0 23.45 0 11.9 0 0 Z " fill="#060606" transform="translate(383,265)"/>
<path d="M0 0 C0.66 0 1.32 0 2 0 C3.99839156 4.661142 5.9920982 9.3242485 7.98144531 13.98925781 C8.65918895 15.57672445 9.33822092 17.16364168 10.01855469 18.75 C10.99491297 21.02722049 11.96665631 23.30636152 12.9375 25.5859375 C13.24373291 26.29744965 13.54996582 27.00896179 13.86547852 27.74203491 C16 32.77225659 16 32.77225659 16 35 C13.36 35 10.72 35 8 35 C7.34 33.02 6.68 31.04 6 29 C2.37 29 -1.26 29 -5 29 C-5.99 30.98 -6.98 32.96 -8 35 C-9.98 35 -11.96 35 -14 35 C-11.57606156 27.26490635 -8.50605264 19.88362854 -5.3125 12.4375 C-4.80138672 11.23802734 -4.29027344 10.03855469 -3.76367188 8.80273438 C-2.51224198 5.86713715 -1.25761707 2.93295065 0 0 Z " fill="#080808" transform="translate(483,265)"/>
<path d="M0 0 C3.21024769 2.64886006 4.55246586 6.04685111 6.13671875 9.78515625 C6.42102249 10.44204941 6.70532623 11.09894257 6.99824524 11.77574158 C7.59573694 13.16031101 8.18975821 14.54638259 8.78051758 15.93383789 C9.6871896 18.0617715 10.60535898 20.18445395 11.52539062 22.30664062 C12.10484891 23.65335248 12.68364795 25.00034823 13.26171875 26.34765625 C13.53666672 26.98413589 13.81161469 27.62061554 14.09489441 28.27638245 C16 32.76789905 16 32.76789905 16 35 C13.36 35 10.72 35 8 35 C7.34 32.69 6.68 30.38 6 28 C2.04 28 -1.92 28 -6 28 C-6.33 29.65 -6.66 31.3 -7 33 C-7.33 33.66 -7.66 34.32 -8 35 C-9.98 35 -11.96 35 -14 35 C-13.32574837 30.78592733 -11.94711857 27.13843703 -10.3125 23.203125 C-10.04993408 22.56888611 -9.78736816 21.93464722 -9.5168457 21.28118896 C-8.96424994 19.94908831 -8.40944136 18.61790366 -7.85253906 17.28759766 C-6.99779801 15.24473717 -6.15072803 13.1988207 -5.3046875 11.15234375 C-1.14478828 1.14478828 -1.14478828 1.14478828 0 0 Z " fill="#080808" transform="translate(299,265)"/>
<path d="M0 0 C7.59 0 15.18 0 23 0 C23 2.31 23 4.62 23 7 C20.36 7 17.72 7 15 7 C15 16.24 15 25.48 15 35 C12.69 35 10.38 35 8 35 C8 25.76 8 16.52 8 7 C5.36 7 2.72 7 0 7 C0 4.69 0 2.38 0 0 Z " fill="#080808" transform="translate(315,265)"/>
<path d="M0 0 C7.59 0 15.18 0 23 0 C23 2.31 23 4.62 23 7 C20.03 7 17.06 7 14 7 C14 16.24 14 25.48 14 35 C12.02 35 10.04 35 8 35 C8 25.76 8 16.52 8 7 C5.36 7 2.72 7 0 7 C0 4.69 0 2.38 0 0 Z " fill="#020202" transform="translate(412,265)"/>
<path d="M0 0 C3.375 -0.125 3.375 -0.125 7 0 C9 2 9 2 9.25 5 C9 8 9 8 7 10 C3.375 10.125 3.375 10.125 0 10 C0 6.7 0 3.4 0 0 Z " fill="#FAFAFA" transform="translate(448,272)"/>
<path d="M0 0 C0.66 0.33 1.32 0.66 2 1 C2.73075648 3.3140622 3.40138258 5.64828869 4 8 C1.69 8 -0.62 8 -3 8 C-1.125 2.25 -1.125 2.25 0 0 Z " fill="#CFCFCF" transform="translate(483,280)"/>
<path d="M0 0 C2.62386487 3.06117568 3 3.73173127 3 8 C1.02 8 -0.96 8 -3 8 C-1.125 1.125 -1.125 1.125 0 0 Z " fill="#D7D7D7" transform="translate(299,280)"/>
</svg>
