<?xml version="1.0" encoding="UTF-8"?>
<svg version="1.1" xmlns="http://www.w3.org/2000/svg" width="500" height="500">
<path d="M0 0 C0.73382401 -0.0087616 1.46764801 -0.01752319 2.22370911 -0.02655029 C4.64591875 -0.04853042 7.06629767 -0.03399697 9.48852539 -0.01708984 C11.17477264 -0.02045879 12.86101752 -0.02531207 14.54725647 -0.03158569 C18.08056772 -0.03895538 21.61324667 -0.02825038 25.14648438 -0.00488281 C29.67075753 0.02358388 34.19354635 0.00721606 38.71776485 -0.02274513 C42.20002881 -0.04083462 45.68194234 -0.03505229 49.164217 -0.02210617 C50.83194721 -0.01877555 52.49970946 -0.02284719 54.16740227 -0.03450394 C56.501778 -0.04723839 58.83377011 -0.02780311 61.16796875 0 C61.85436432 -0.01012115 62.54075989 -0.02024231 63.24795532 -0.03067017 C67.05928545 0.05321846 68.55608869 0.56958451 71.52182007 3.04830933 C73.41081534 5.35634047 74.96844297 7.52822764 76.41040039 10.13134766 C77.12111694 11.39712646 77.12111694 11.39712646 77.84619141 12.68847656 C78.58373657 14.02918213 78.58373657 14.02918213 79.33618164 15.39697266 C80.40035318 17.2959331 81.46546986 19.19436417 82.53149414 21.09228516 C83.05775391 22.03362305 83.58401367 22.97496094 84.1262207 23.94482422 C86.27064086 27.75086051 88.48355104 31.51422061 90.71118164 35.27197266 C94.22263334 41.21193788 97.69754434 47.17176116 101.14868164 53.14697266 C111.6795346 71.37276984 111.6795346 71.37276984 122.66430664 89.32666016 C124.88297545 93.0389997 126.93375167 96.8247577 128.9934082 100.62695312 C131.87806704 105.88996638 134.8916301 111.07822079 137.89868164 116.27197266 C138.55763428 117.41134277 139.21658691 118.55071289 139.89550781 119.72460938 C141.81093892 123.03340025 143.72912266 126.34057515 145.64868164 129.64697266 C146.14513184 130.50291016 146.64158203 131.35884766 147.15307617 132.24072266 C149.95353106 137.06186201 152.78598092 141.86255696 155.64868164 146.64697266 C156.08583496 147.38254395 156.52298828 148.11811523 156.97338867 148.87597656 C158.31194782 151.1193424 159.66540554 153.35300117 161.02368164 155.58447266 C161.4288501 156.26590332 161.83401855 156.94733398 162.25146484 157.64941406 C164.38090298 161.10536559 165.83805787 163.20809754 169.64868164 164.64697266 C172.07859306 164.93034025 172.07859306 164.93034025 174.67602539 164.88525391 C176.11171875 164.90942383 176.11171875 164.90942383 177.57641602 164.93408203 C179.5789557 164.95097562 181.5816282 164.95623016 183.58422852 164.94970703 C184.54264648 164.9696875 185.50106445 164.98966797 186.48852539 165.01025391 C187.35856201 165.01323486 188.22859863 165.01621582 189.125 165.01928711 C192.80352019 165.93420202 194.25292907 167.75553973 196.64868164 170.64697266 C197.28359985 173.75817871 197.28359985 173.75817871 197.2956543 177.28564453 C197.30879669 178.25492638 197.30879669 178.25492638 197.32220459 179.24378967 C197.34411606 181.36846127 197.32967913 183.49103193 197.31274414 185.61572266 C197.31611475 187.09875892 197.32096941 188.58179249 197.32723999 190.06481934 C197.33459999 193.16848122 197.32393534 196.27142214 197.30053711 199.375 C197.27204819 203.34666072 197.28845708 207.31663212 197.31839943 211.2882309 C197.33649701 214.34931082 197.33070348 217.40999245 197.31776047 220.47108459 C197.31443317 221.93506573 197.31848981 223.39908343 197.33015823 224.86302185 C197.34290962 226.91241741 197.32343912 228.95910614 197.2956543 231.00830078 C197.29167633 232.1723645 197.28769836 233.33642822 197.28359985 234.5357666 C196.42919999 238.72246967 195.09937588 240.15874841 191.64868164 242.64697266 C188.83562558 243.14769997 186.62414922 243.34305111 183.81665039 243.30981445 C183.04366608 243.32018234 182.27068176 243.33055023 181.47427368 243.3412323 C178.92769773 243.36826273 176.38284869 243.35865083 173.83618164 243.34619141 C172.06168132 243.35210154 170.28718499 243.35934877 168.51269531 243.36787415 C164.79707027 243.37974753 161.08204452 243.37305801 157.36645508 243.35375977 C152.60778043 243.33086685 147.8508906 243.357659 143.09239197 243.39882183 C139.42911674 243.42441121 135.766268 243.42181711 132.10293579 243.41092873 C130.34866718 243.40944302 128.59436574 243.41712075 126.84017944 243.43417931 C124.38592628 243.45417295 121.93482147 243.43575106 119.48071289 243.4074707 C118.39737167 243.42804535 118.39737167 243.42804535 117.29214478 243.44903564 C114.50044988 243.38482729 112.30022174 243.19533178 110.11787415 241.35859108 C104.63119499 234.89671503 100.71057872 226.91863031 97.02368164 219.33447266 C92.94611472 211.00205329 88.25981162 202.99868392 83.67211914 194.93994141 C83.15359375 194.02776855 82.63506836 193.1155957 82.10083008 192.17578125 C81.20080202 190.60844927 80.28949495 189.04746583 79.3605957 187.49707031 C76.64868164 182.94978433 76.64868164 182.94978433 76.64868164 179.64697266 C74.82336914 179.24478516 74.82336914 179.24478516 72.96118164 178.83447266 C72.27668945 178.68365234 71.59219727 178.53283203 70.88696289 178.37744141 C67.24375699 178.81615206 65.96363762 180.89617621 63.64868164 183.64697266 C61.90925069 186.21997643 60.36435349 188.88179071 58.83618164 191.58447266 C58.39878662 192.34244141 57.9613916 193.10041016 57.51074219 193.88134766 C56.21465981 196.13170408 54.9294423 198.38786748 53.64868164 200.64697266 C48.80992574 209.17951135 43.91746401 217.67651087 38.9156189 226.11474609 C37.91405223 227.80847969 36.92058208 229.50699262 35.92724609 231.20556641 C34.99271606 232.77564453 34.99271606 232.77564453 34.03930664 234.37744141 C33.48275391 235.31998779 32.92620117 236.26253418 32.3527832 237.23364258 C30.54416491 239.79498811 29.42293454 241.18669984 26.64868164 242.64697266 C23.86455851 243.01151199 21.30608694 243.20937342 18.51586914 243.25634766 C17.32805344 243.28199799 17.32805344 243.28199799 16.11624146 243.3081665 C14.44032743 243.33646605 12.76424773 243.35609864 11.08813477 243.36767578 C8.55057101 243.39666547 6.02045594 243.48963809 3.48461914 243.58447266 C-4.41970039 243.7377335 -10.14444752 243.84074851 -16.30444336 238.28369141 C-17.67757401 236.75955348 -19.02962513 235.21592493 -20.35131836 233.64697266 C-21.53627329 232.63964023 -22.74149105 231.65500866 -23.97631836 230.70947266 C-24.76006836 230.02884766 -25.54381836 229.34822266 -26.35131836 228.64697266 C-26.35131836 227.98697266 -26.35131836 227.32697266 -26.35131836 226.64697266 C-27.01131836 226.64697266 -27.67131836 226.64697266 -28.35131836 226.64697266 C-29.97631836 225.27197266 -29.97631836 225.27197266 -31.35131836 223.64697266 C-31.35131836 222.98697266 -31.35131836 222.32697266 -31.35131836 221.64697266 C-32.15182617 221.33953125 -32.15182617 221.33953125 -32.96850586 221.02587891 C-36.3506927 219.06864619 -38.78169324 216.38727616 -41.47631836 213.58447266 C-45.04685202 209.64248325 -45.04685202 209.64248325 -49.35131836 206.64697266 C-49.35131836 205.98697266 -49.35131836 205.32697266 -49.35131836 204.64697266 C-50.01131836 204.64697266 -50.67131836 204.64697266 -51.35131836 204.64697266 C-52.97631836 203.27197266 -52.97631836 203.27197266 -54.35131836 201.64697266 C-54.35131836 200.98697266 -54.35131836 200.32697266 -54.35131836 199.64697266 C-54.99069336 199.37884766 -55.63006836 199.11072266 -56.28881836 198.83447266 C-58.35131836 197.64697266 -58.35131836 197.64697266 -59.35131836 194.64697266 C-60.67090263 193.95348901 -62.00653714 193.29023443 -63.35131836 192.64697266 C-65.20288086 190.95556641 -65.20288086 190.95556641 -66.97631836 189.08447266 C-69.39653795 186.50681876 -69.39653795 186.50681876 -72.35131836 184.64697266 C-72.35131836 183.98697266 -72.35131836 183.32697266 -72.35131836 182.64697266 C-73.01131836 182.64697266 -73.67131836 182.64697266 -74.35131836 182.64697266 C-76.06240524 181.02594298 -77.72160908 179.34979479 -79.35131836 177.64697266 C-80.21112305 176.79876953 -81.07092773 175.95056641 -81.95678711 175.07666016 C-82.80885742 174.23361328 -83.66092773 173.39056641 -84.53881836 172.52197266 C-85.39862305 171.67376953 -86.25842773 170.82556641 -87.14428711 169.95166016 C-91.20013366 165.71635137 -91.60794759 163.33897856 -91.6418457 157.5769043 C-91.64856293 156.86112717 -91.65528015 156.14535004 -91.66220093 155.40788269 C-91.68120449 153.04089423 -91.68510614 150.67418891 -91.68725586 148.30712891 C-91.69368173 146.66189965 -91.70040993 145.01667154 -91.70742798 143.3714447 C-91.71940632 139.92232615 -91.72310819 136.47330781 -91.72192383 133.02416992 C-91.72172051 128.60427098 -91.74903324 124.18501408 -91.78346825 119.76526737 C-91.80570348 116.36719307 -91.80976243 112.96927418 -91.80870438 109.57113457 C-91.81106503 107.94163231 -91.81991467 106.31212607 -91.83536911 104.68269539 C-91.85496361 102.40348424 -91.8492184 100.12566912 -91.8371582 97.84643555 C-91.84000824 96.54976456 -91.84285828 95.25309357 -91.84579468 93.91712952 C-91.35131836 90.64697266 -91.35131836 90.64697266 -89.72303772 88.22914124 C-86.62065653 86.15954982 -84.63695294 86.14204111 -80.91796875 86.1328125 C-79.6130397 86.11954926 -78.30811066 86.10628601 -76.96363831 86.09262085 C-75.54208331 86.09759459 -74.12052874 86.10269409 -72.69897461 86.10791016 C-71.23691844 86.09800086 -69.77487477 86.08605872 -68.31285095 86.07217407 C-64.46618341 86.03981413 -60.61980051 86.02942075 -56.77301025 86.02532959 C-50.61985224 86.01657416 -44.46692818 85.98098924 -38.31396294 85.93315506 C-36.16853429 85.9205978 -34.0234028 85.92132567 -31.87794495 85.9234314 C-30.56986374 85.91647247 -29.26178253 85.90951355 -27.9140625 85.90234375 C-26.76474747 85.9010849 -25.61543243 85.89982605 -24.43128967 85.89852905 C-19.88302443 85.52704987 -17.38928053 84.6364148 -14.06896973 81.47131348 C-11.89707105 77.90005203 -11.85846058 75.62434967 -11.86889648 71.45751953 C-11.86302773 70.40045555 -11.86302773 70.40045555 -11.85704041 69.32203674 C-11.85108226 67.798649 -11.85420502 66.27520411 -11.86546326 64.75184631 C-11.88276334 62.33852305 -11.87519826 59.92639361 -11.86120605 57.51306152 C-11.83589131 52.39095008 -11.84136918 47.26912122 -11.85131836 42.14697266 C-11.86285073 36.20974778 -11.86167814 30.27310448 -11.82725525 24.33595276 C-11.8201693 21.96203931 -11.83682647 19.58905043 -11.85437012 17.21520996 C-11.84866146 15.7556102 -11.84184379 14.29601421 -11.83374023 12.83642578 C-11.83692261 11.56577271 -11.84010498 10.29511963 -11.84338379 8.98596191 C-10.75043313 1.56956909 -6.95677242 -0.10227854 0 0 Z M-4.95863342 90.3473053 C-6.8166409 93.41533528 -6.73879994 95.59508203 -6.75537109 99.17211914 C-6.76223434 99.81816101 -6.7690976 100.46420288 -6.77616882 101.12982178 C-6.79442825 103.25946201 -6.79060084 105.3883649 -6.78491211 107.51806641 C-6.78947453 109.0025303 -6.79478029 110.48699209 -6.80079651 111.97145081 C-6.80972601 115.08090807 -6.80730672 118.19010848 -6.79736328 121.29956055 C-6.78587655 125.27884808 -6.80608023 129.25724782 -6.83528042 133.23641872 C-6.85365235 136.3017182 -6.85334802 139.36680534 -6.8476429 142.43214607 C-6.84748979 143.89892891 -6.85352582 145.36572623 -6.86593437 146.83245659 C-6.88086186 148.88634314 -6.87015755 150.93859524 -6.85302734 152.99243164 C-6.85286118 154.15951157 -6.85269501 155.32659149 -6.8525238 156.52903748 C-6.24082829 160.3343173 -5.1040023 161.98368407 -2.35131836 164.64697266 C0.64259703 165.89659781 3.66766059 165.7841368 6.88867188 165.80810547 C7.93333115 165.81771301 8.97799042 165.82732056 10.05430603 165.83721924 C11.73877586 165.84359406 11.73877586 165.84359406 13.45727539 165.85009766 C14.61614761 165.85579773 15.77501984 165.8614978 16.9690094 165.86737061 C19.41927173 165.87681313 21.86954672 165.88335162 24.31982422 165.88720703 C28.06833972 165.89692639 31.81631009 165.92796326 35.56469727 165.95947266 C37.94555339 165.96600156 40.32641342 165.97125247 42.70727539 165.97509766 C44.38870888 165.99361786 44.38870888 165.99361786 46.10411072 166.01251221 C47.15192215 166.00951111 48.19973358 166.00651001 49.27929688 166.00341797 C50.1976683 166.0070636 51.11603973 166.01070923 52.0622406 166.01446533 C56.26615747 165.41715473 58.88109661 163.59366086 61.52368164 160.33447266 C63.02238385 156.75423959 62.67791259 155.4236548 61.64868164 151.64697266 C59.83199944 148.1356353 57.75161306 144.80526562 55.64868164 141.45947266 C54.54204354 139.67584742 53.43776705 137.89075415 52.33618164 136.10400391 C51.84504883 135.32001221 51.35391602 134.53602051 50.84790039 133.72827148 C49.64868164 131.64697266 49.64868164 131.64697266 48.64868164 128.64697266 C47.98868164 128.64697266 47.32868164 128.64697266 46.64868164 128.64697266 C46.53137695 128.07978516 46.41407227 127.51259766 46.29321289 126.92822266 C43.00639212 115.29486915 33.93056055 103.86930288 27.64868164 93.64697266 C27.28033203 93.03031738 26.91198242 92.41366211 26.5324707 91.77832031 C24.59751707 88.66257302 23.23334954 86.64776826 19.64868164 85.64697266 C16.66369893 85.35188796 13.70898267 85.32243329 10.71118164 85.33447266 C9.91260742 85.31835938 9.1140332 85.30224609 8.29125977 85.28564453 C2.60536463 85.28093376 -0.91370754 86.06829388 -4.95863342 90.3473053 Z " fill="#020202" transform="translate(193.351318359375,100.35302734375)"/>
<path d="M0 0 C0.66 0.33 1.32 0.66 2 1 C1.35125916 1.51242249 0.70251831 2.02484497 0.03411865 2.55279541 C-2.70933272 5.85338301 -2.51651345 7.89445053 -2.54589844 12.15527344 C-2.56140495 13.22416557 -2.56140495 13.22416557 -2.57722473 14.31465149 C-2.60665349 16.66312329 -2.60815183 19.0107333 -2.609375 21.359375 C-2.62435671 22.99035282 -2.64108384 24.62131547 -2.65948486 26.2522583 C-2.70317214 30.53974097 -2.72316037 34.827019 -2.73822021 39.11468506 C-2.75778644 43.49194446 -2.79975695 47.86898269 -2.83984375 52.24609375 C-2.91516073 60.83067132 -2.965443 69.41516206 -3 78 C-3.33 78 -3.66 78 -4 78 C-4.09266788 68.42074639 -4.16374845 58.841647 -4.20724869 49.262043 C-4.22812638 44.81385723 -4.25644702 40.36597806 -4.30175781 35.91796875 C-4.34520957 31.62560766 -4.36913574 27.33354152 -4.37950897 23.04097748 C-4.3869016 21.40307725 -4.40133775 19.76519323 -4.42292023 18.12741852 C-4.45194647 15.83361391 -4.45595651 13.54102894 -4.45410156 11.24707031 C-4.46298401 9.94135071 -4.47186646 8.6356311 -4.48101807 7.29034424 C-3.92562978 3.49127974 -2.97145214 2.33159141 0 0 Z " fill="#343434" transform="translate(106,187)"/>
</svg>
