<?xml version="1.0" encoding="UTF-8"?>
<svg version="1.1" xmlns="http://www.w3.org/2000/svg" width="500" height="500">
<path d="M0 0 C1.0566259 -0.01533279 1.0566259 -0.01533279 2.13459778 -0.03097534 C4.46458879 -0.05878857 6.79339781 -0.05685278 9.12353516 -0.05224609 C10.74395182 -0.06001995 12.36436442 -0.06868928 13.98477173 -0.07821655 C17.38272299 -0.09314603 20.78025873 -0.09255616 24.17822266 -0.08203125 C28.52891851 -0.07045025 32.87790908 -0.10427467 37.22832298 -0.1507206 C40.57589634 -0.1802169 43.92306022 -0.18193596 47.27074051 -0.17570114 C48.87430826 -0.17672687 50.47789913 -0.18718987 52.08134079 -0.20732498 C54.32748075 -0.23206506 56.5703174 -0.2184781 58.81640625 -0.1953125 C60.73143448 -0.19720078 60.73143448 -0.19720078 62.68515015 -0.1991272 C67.97225159 0.98123349 69.47633883 4.22812616 72.42797852 8.61645508 C72.78255127 9.227229 73.13712402 9.83800293 73.50244141 10.46728516 C73.90648193 11.15806152 74.31052246 11.84883789 74.72680664 12.56054688 C75.13874268 13.27871582 75.55067871 13.99688477 75.97509766 14.73681641 C76.41474854 15.49365723 76.85439941 16.25049805 77.30737305 17.03027344 C80.07058124 21.80665434 82.73922737 26.62762828 85.35400391 31.48681641 C91.28203835 42.27006235 97.51364162 52.89793427 104.08837891 63.29931641 C106.32206879 67.02362499 108.38756381 70.82257126 110.45581055 74.640625 C112.95736437 79.24064232 115.52506022 83.80262888 118.10009766 88.36181641 C118.93166382 89.83473145 118.93166382 89.83473145 119.7800293 91.33740234 C124.27043507 99.25993721 128.87195077 107.11295151 133.54760742 114.92749023 C136.72014376 120.24601897 139.74528324 125.62520838 142.69165039 131.07226562 C144.27749361 133.99081547 145.92221753 136.87026939 147.60009766 139.73681641 C148.18017578 140.72810547 148.76025391 141.71939453 149.35791016 142.74072266 C150.856887 145.24715138 152.40070329 147.71488114 153.97509766 150.17431641 C156.03759766 153.54931641 156.03759766 153.54931641 156.03759766 155.54931641 C157.27848145 155.56333496 157.27848145 155.56333496 158.54443359 155.57763672 C162.29276181 155.6313196 166.03983928 155.71497351 169.78759766 155.79931641 C171.08955078 155.81349609 172.39150391 155.82767578 173.73291016 155.84228516 C174.98330078 155.87451172 176.23369141 155.90673828 177.52197266 155.93994141 C178.67407227 155.96088867 179.82617188 155.98183594 181.01318359 156.00341797 C184.74350967 156.67673159 185.72317512 157.5893293 188.03759766 160.54931641 C188.54553223 163.43310547 188.54553223 163.43310547 188.55517578 166.81494141 C188.56778442 168.08305664 188.58039307 169.35117187 188.59338379 170.65771484 C188.58622396 172.03825436 188.57801996 173.4187888 188.56884766 174.79931641 C188.57154328 176.21891546 188.57542629 177.63851272 188.58044434 179.05810547 C188.58633624 182.03061535 188.5777872 185.00264382 188.55908203 187.97509766 C188.53629166 191.78190427 188.54941653 195.5875829 188.57337189 199.39434814 C188.5878388 202.32495597 188.58322001 205.25529715 188.57286072 208.18591309 C188.57019585 209.58931614 188.57345483 210.99274355 188.58277893 212.39611816 C188.59295706 214.35863775 188.57468806 216.32124242 188.55517578 218.28369141 C188.55199341 219.39969727 188.54881104 220.51570312 188.54553223 221.66552734 C188.03759766 224.54931641 188.03759766 224.54931641 186.45797729 226.90757751 C183.13043078 229.16464597 180.80116837 229.06373554 176.79394531 229.08276367 C176.07148117 229.09137924 175.34901703 229.09999481 174.60466003 229.10887146 C172.21996063 229.13154569 169.83643532 229.12478943 167.45166016 229.11572266 C165.79022879 229.12095853 164.12880041 229.12723488 162.46737671 229.13450623 C158.98543309 229.14491374 155.50389802 229.14034552 152.02197266 229.12573242 C147.5673344 229.10856442 143.11398839 229.13201227 138.6594944 229.16722202 C135.22782906 229.18922366 131.79647142 229.18774761 128.36475754 229.17945671 C126.72296102 229.1786383 125.08114166 229.18548075 123.43941116 229.20022774 C121.1388228 229.21772146 118.84053639 229.20309412 116.54003906 229.18041992 C115.23306061 229.17945816 113.92608215 229.1784964 112.57949829 229.17750549 C107.44374805 228.26663232 104.66192775 225.77111983 101.56542969 221.53564453 C101.06052002 220.56788086 101.06052002 220.56788086 100.54541016 219.58056641 C100.15450195 218.8510376 99.76359375 218.12150879 99.36083984 217.36987305 C98.96541992 216.60408936 98.57 215.83830566 98.16259766 215.04931641 C97.2978677 213.43211452 96.43065895 211.81623573 95.56103516 210.20166016 C95.13661133 209.41001465 94.7121875 208.61836914 94.27490234 207.80273438 C92.5522382 204.66536459 90.68830416 201.64493617 88.78759766 198.61181641 C86.37207594 194.75086201 84.0738514 190.87077413 81.91259766 186.86181641 C81.43564453 185.98396484 80.95869141 185.10611328 80.46728516 184.20166016 C79.47898438 182.36817321 78.50595929 180.52639965 77.54541016 178.67822266 C74.76273964 173.38513647 74.76273964 173.38513647 69.97509766 170.11181641 C66.08304069 170.69148447 64.42566433 172.61052785 62.03759766 175.54931641 C60.15861199 178.38457478 58.50268523 181.32771857 56.85009766 184.29931641 C55.88191081 186.00536528 54.9131488 187.71108787 53.94384766 189.41650391 C53.21681641 190.70379395 53.21681641 190.70379395 52.47509766 192.01708984 C49.12513285 197.91821671 45.66367946 203.75473445 42.19873047 209.58886719 C41.43134037 210.88452372 40.6675966 212.1823476 39.90771484 213.48242188 C38.85593816 215.28111922 37.79217304 217.07216463 36.72509766 218.86181641 C36.13083984 219.86857422 35.53658203 220.87533203 34.92431641 221.91259766 C32.5093648 225.28753003 30.32556619 228.12783057 26.04081726 228.91716003 C23.60368843 229.06182617 21.19758785 229.07747349 18.75634766 229.04541016 C17.86524292 229.04686539 16.97413818 229.04832062 16.05603027 229.04981995 C14.17664309 229.04816389 12.29724193 229.03663548 10.41796875 229.01586914 C7.54710067 228.98691226 4.6780803 228.99526665 1.80712891 229.00830078 C-0.02230712 229.00206288 -1.85173733 228.99367154 -3.68115234 228.98291016 C-4.5364856 228.98584579 -5.39181885 228.98878143 -6.27307129 228.99180603 C-10.99158687 228.91739612 -14.13421607 228.60221378 -17.96240234 225.54931641 C-19.20947553 224.07840957 -20.4545839 222.6047217 -21.64599609 221.08837891 C-23.12614873 219.27079725 -23.12614873 219.27079725 -25.96240234 217.04931641 C-29.06686637 214.46226305 -31.38774959 211.65210306 -33.96240234 208.54931641 C-35.35458984 207.43556641 -35.35458984 207.43556641 -36.77490234 206.29931641 C-37.49677734 205.72181641 -38.21865234 205.14431641 -38.96240234 204.54931641 C-38.96240234 203.88931641 -38.96240234 203.22931641 -38.96240234 202.54931641 C-39.62240234 202.54931641 -40.28240234 202.54931641 -40.96240234 202.54931641 C-40.96240234 201.88931641 -40.96240234 201.22931641 -40.96240234 200.54931641 C-41.62240234 200.54931641 -42.28240234 200.54931641 -42.96240234 200.54931641 C-42.96240234 199.88931641 -42.96240234 199.22931641 -42.96240234 198.54931641 C-43.85424225 198.14594307 -43.85424225 198.14594307 -44.76409912 197.73442078 C-46.96952242 196.54547798 -48.3846133 195.36350495 -50.13525391 193.58764648 C-50.72977356 192.98974808 -51.32429321 192.39184967 -51.93682861 191.77583313 C-52.88534698 190.80712532 -52.88534698 190.80712532 -53.85302734 189.81884766 C-54.51647156 189.15020187 -55.17991577 188.48155609 -55.86346436 187.79264832 C-57.98458641 185.65373559 -60.09892402 183.50828021 -62.21240234 181.36181641 C-64.31239941 179.23402881 -66.41389366 177.10777812 -68.51849365 174.98454285 C-69.82592778 173.66504231 -71.13068377 172.34288036 -72.43218994 171.01753235 C-76.17621474 167.23323286 -80.02392082 163.73671427 -84.18035889 160.40653992 C-88.3765482 156.03332365 -89.33843237 151.71326751 -89.35058594 145.79711914 C-89.3558429 145.15078522 -89.36109985 144.50445129 -89.36651611 143.83853149 C-89.3796309 141.71973918 -89.37101025 139.60170899 -89.36083984 137.48291016 C-89.3628628 136.00130571 -89.36577609 134.51970225 -89.36953735 133.0381012 C-89.37394892 129.94058708 -89.36756669 126.84333335 -89.35351562 123.74584961 C-89.33640913 119.78243804 -89.34628111 115.81963534 -89.36423302 111.85624599 C-89.37508985 108.79953957 -89.37161612 105.74297677 -89.36384964 102.68626595 C-89.36185365 101.22507721 -89.36428576 99.76387527 -89.3712883 98.30270195 C-89.37893618 96.25882434 -89.36725442 94.21592423 -89.35058594 92.17211914 C-89.34700577 90.43054787 -89.34700577 90.43054787 -89.34335327 88.65379333 C-88.91801081 85.18755724 -88.09148617 83.29967113 -85.96240234 80.54931641 C-82.5821843 79.42257706 -80.00681634 79.41789693 -76.44311523 79.4074707 C-75.78585953 79.40399628 -75.12860382 79.40052185 -74.45143127 79.39694214 C-73.02567959 79.38959687 -71.59991655 79.38424494 -70.17415047 79.38065147 C-67.91698584 79.37347772 -65.66003755 79.35780548 -63.40293884 79.33930969 C-56.98602218 79.28687588 -50.56922602 79.23884736 -44.15209961 79.22338867 C-40.2256359 79.21330999 -36.29971966 79.18399263 -32.37347221 79.14206886 C-30.87800676 79.12975541 -29.38246402 79.12463825 -27.88694954 79.12686729 C-25.79439919 79.12921923 -23.70342175 79.10706768 -21.61108398 79.0793457 C-20.42100235 79.07347946 -19.23092072 79.06761322 -18.004776 79.06156921 C-14.91620473 78.75713522 -14.91620473 78.75713522 -12.57800293 76.94221497 C-10.40946536 73.7303503 -10.46358624 71.59625745 -10.46411133 67.73291016 C-10.45859253 67.05600128 -10.45307373 66.37909241 -10.4473877 65.68167114 C-10.43808188 64.21612444 -10.43795091 62.75049687 -10.44598198 61.28494263 C-10.45861831 58.96437222 -10.44731859 56.64499017 -10.4299469 54.32446289 C-10.40324705 50.2357279 -10.39765119 46.14728442 -10.39904785 42.05847168 C-10.40127654 35.51408443 -10.38716946 28.97005775 -10.34346199 22.42581177 C-10.33362258 20.14118505 -10.34234075 17.85712484 -10.35215759 15.57250977 C-10.34601314 14.17024362 -10.33910132 12.76798056 -10.33129883 11.36572266 C-10.33226059 10.14312744 -10.33322235 8.92053223 -10.33421326 7.66088867 C-9.50616837 0.7312333 -6.56504364 0.0474439 0 0 Z M-2.96240234 86.54931641 C-3.71219908 89.62566424 -3.71219908 89.62566424 -3.609375 93.00439453 C-3.6251358 94.28922729 -3.64089661 95.57406006 -3.65713501 96.89782715 C-3.64818493 98.29208232 -3.63792986 99.68632964 -3.62646484 101.08056641 C-3.62983566 102.5187623 -3.63469049 103.95695542 -3.64096069 105.3951416 C-3.64831977 108.40465502 -3.63765925 111.41342482 -3.61425781 114.42285156 C-3.58576869 118.27346231 -3.60217811 122.12233064 -3.63212013 125.9728775 C-3.65022036 128.94131512 -3.64442303 131.90934212 -3.63148117 134.87779236 C-3.62815459 136.29711617 -3.63220799 137.71647772 -3.64387894 139.13575745 C-3.65662856 141.1219101 -3.63373743 143.10819412 -3.609375 145.09423828 C-3.60539703 146.22277222 -3.60141907 147.35130615 -3.59732056 148.51403809 C-2.74839595 152.57239145 -1.22987723 154.05864536 2.03759766 156.54931641 C4.6725806 157.28070851 4.6725806 157.28070851 7.4987793 157.16455078 C8.56661148 157.1738562 9.63444366 157.18316162 10.7346344 157.19274902 C11.87746384 157.17635376 13.02029327 157.1599585 14.19775391 157.14306641 C15.9707914 157.14312683 15.9707914 157.14312683 17.77964783 157.14318848 C20.27527186 157.13783291 22.77089545 157.12024894 25.26635742 157.09130859 C29.08971575 157.04943012 32.91131413 157.05024273 36.73486328 157.05712891 C39.16000575 157.04663734 41.58513913 157.03369943 44.01025391 157.01806641 C45.72753441 157.01776428 45.72753441 157.01776428 47.47950745 157.01745605 C49.07652748 156.99358826 49.07652748 156.99358826 50.70581055 156.96923828 C51.64115128 156.96081909 52.576492 156.9523999 53.54017639 156.94372559 C56.51353493 156.47415326 57.87478109 155.61772906 60.03759766 153.54931641 C61.4393955 149.81118881 61.60008537 147.90790568 60.06884766 144.20947266 C58.47615497 141.26741533 56.76609886 138.41368984 55.03759766 135.54931641 C54.05719731 133.79660068 53.07718065 132.04365441 52.10498047 130.28637695 C46.17590259 119.5958644 39.96701733 109.06108566 33.77099609 98.52392578 C32.55071157 96.42984879 31.34711101 94.32600482 30.15576172 92.21533203 C29.5418457 91.13445312 28.92792969 90.05357422 28.29541016 88.93994141 C27.74256348 87.95541992 27.1897168 86.97089844 26.62011719 85.95654297 C25.10698883 83.31351167 25.10698883 83.31351167 22.03759766 81.54931641 C18.76217968 81.07077746 15.46931623 81.13298317 12.16259766 81.11181641 C11.26412109 81.07894531 10.36564453 81.04607422 9.43994141 81.01220703 C8.56724609 81.00511719 7.69455078 80.99802734 6.79541016 80.99072266 C6.00279785 80.97726807 5.21018555 80.96381348 4.39355469 80.94995117 C0.8366621 81.85483939 -0.63765803 83.7653002 -2.96240234 86.54931641 Z " fill="#F8F8F8" transform="translate(204.96240234375,104.45068359375)"/>
</svg>
