<?xml version="1.0" encoding="UTF-8"?>
<svg id="Layer_2" xmlns="http://www.w3.org/2000/svg" version="1.1" viewBox="0 0 344 102">
  <!-- Generator: Adobe Illustrator 29.6.0, SVG Export Plug-In . SVG Version: 2.1.1 Build 207)  -->
  <defs>
    <style>
      .st0 {
        fill-rule: evenodd;
      }

      .st0, .st1 {
        fill: #22cd89;
      }

      .st2 {
        fill: #058652;
      }
    </style>
  </defs>
  <g id="Layer_1-2">
    <g>
      <g>
        <g>
          <path class="st2" d="M87.1,40.6c0-6.4-.2-11.8-.4-16.4h13.5l.7,6.9h.3c2.2-3.2,6.7-8.1,15.4-8.1s11.8,3.4,14,8.8h.2c1.9-2.7,4.2-4.8,6.7-6.2,2.8-1.7,5.9-2.5,9.7-2.5,9.8,0,17.2,6.9,17.2,22.2v30.1h-15.5v-27.8c0-7.4-2.4-11.7-7.5-11.7s-6.2,2.5-7.3,5.6c-.4,1.1-.6,2.8-.6,4v29.9h-15.5v-28.7c0-6.5-2.3-10.8-7.4-10.8s-6.5,3.1-7.5,5.7c-.5,1.2-.6,2.7-.6,4v29.8h-15.5v-34.8h.1Z"/>
          <path class="st2" d="M173.1,75.4v-39.5h-6.8v-11.7h6.8v-1.9c0-6.2,1.9-12.9,6.4-17.2C183.5,1.3,189,0,193.7,0s6.2.5,8.4,1.1l-.6,12.2c-1.4-.4-3-.7-5.1-.7-5.2,0-7.4,4.1-7.4,9.1v2.6h10.2v11.7h-10.1v39.5h-16q0,0,0,0Z"/>
          <path class="st2" d="M225.8,76.6c-14.9,0-26.4-9.8-26.4-26.4s10.9-27.1,27.4-27.1,26.1,10.8,26.1,26.2-13.3,27.3-26.9,27.3h-.2ZM226.1,65.2c6.2,0,10.1-6.2,10.1-15.5s-2.9-15.3-10.1-15.3-10.5,7.8-10.5,15.4,3.7,15.4,10.4,15.4h.1Z"/>
          <path class="st2" d="M305.5,59c0,6.7.2,12.2.4,16.4h-13.8l-.7-7.2h-.3c-2,3.2-6.8,8.4-16,8.4s-18-6.5-18-22.2v-30.1h15.9v27.5c0,7.5,2.4,12,8,12s6.9-3,7.9-5.6c.4-.9.6-2.1.6-3.4v-30.5h15.9v34.8s.1,0,.1-.1Z"/>
          <path class="st2" d="M312.5,41.1c0-7.5-.1-12.5-.4-16.9h13.7l.6,9.5h.4c2.6-7.5,8.9-10.6,13.8-10.6s2.2,0,3.4.3v15c-1.3-.3-2.6-.4-4.4-.4-5.8,0-9.8,3.1-10.9,8.1-.2,1-.3,2.3-.3,3.5v25.9h-15.9v-34.4h0Z"/>
        </g>
        <g>
          <polyline class="st0" points="0 75.4 0 0 71.6 0 71.6 75.4 65.2 75.4 65.2 5.4 6.3 5.4 6.3 75.4"/>
          <polyline class="st0" points="10.4 62.3 10.4 8.9 61 8.9 61 62.3 56.5 62.3 56.5 12.8 14.8 12.8 14.8 62.3"/>
          <polyline class="st0" points="18.3 52.4 18.3 15.7 53.2 15.7 53.2 52.4 50.1 52.4 50.1 18.3 21.4 18.3 21.4 52.4"/>
          <polyline class="st0" points="24.3 44.6 24.3 20.6 47.1 20.6 47.1 44.6 45 44.6 45 22.3 26.3 22.3 26.3 44.6"/>
        </g>
      </g>
      <g>
        <path class="st1" d="M91.2,101.6h-4.4v-12.4h4.4c1.2,0,2.3.2,3.2.7s1.6,1.2,2.1,2.1.7,2,.7,3.3-.2,2.4-.7,3.3-1.2,1.6-2.1,2.1-2,.7-3.2.7v.2ZM89.5,99.4h1.7c.8,0,1.4,0,2-.4s.9-.7,1.2-1.3c.3-.6.4-1.3.4-2.3s0-1.7-.4-2.2-.7-1-1.2-1.3-1.2-.4-2-.4h-1.7v7.9h0Z"/>
        <path class="st1" d="M110.4,101.6h-2.8l4.3-12.4h3.4l4.3,12.4h-2.8l-3.1-9.5h0l-3.1,9.5h-.2ZM110.2,96.8h6.6v2h-6.6v-2Z"/>
        <path class="st1" d="M128.7,91.4v-2.2h10.2v2.2h-3.8v10.2h-2.6v-10.2h-3.8,0Z"/>
        <path class="st1" d="M150.9,101.6h-2.8l4.3-12.4h3.4l4.3,12.4h-2.8l-3.1-9.5h0l-3.1,9.5h-.2,0ZM150.7,96.8h6.6v2h-6.6v-2Z"/>
        <path class="st1" d="M184.8,101.6v-12.4h4.9c.9,0,1.7.2,2.4.5s1.2.8,1.5,1.4.5,1.3.5,2.1-.2,1.5-.5,2.1-.9,1-1.5,1.4c-.7.3-1.5.5-2.4.5h-3.3v-2.1h2.8c.5,0,.9,0,1.2-.2.3,0,.6-.3.7-.6.2-.3.2-.6.2-1s0-.8-.2-1c-.2-.3-.4-.5-.7-.6s-.7-.2-1.3-.2h-1.8v10.2h-2.6.1q0,0,0-.1ZM191.5,96l3.1,5.6h-2.9l-3-5.6h2.8,0Z"/>
        <path class="st1" d="M205.7,101.6v-12.4h8.3v2.2h-5.7v2.9h5.3v2.2h-5.3v3h5.7v2.2h-8.4.1q0,0,0,0Z"/>
        <path class="st1" d="M232.6,92.8c0-.5-.3-.9-.6-1.1-.4-.3-.9-.4-1.5-.4s-.8,0-1.1.2c-.3,0-.5.3-.7.5s-.2.4-.2.7,0,.4.1.6.2.3.4.4l.6.3c.2,0,.5.2.8.2l1.1.3c.5,0,1,.3,1.5.5s.8.4,1.2.7c.3.3.6.6.8,1s.3.9.3,1.4c0,.8-.2,1.4-.6,2s-.9,1-1.6,1.3-1.6.5-2.6.5-1.9-.2-2.6-.5-1.3-.8-1.7-1.4-.6-1.3-.6-2.2h2.5c0,.4.1.8.4,1,.2.3.5.5.9.6s.8.2,1.2.2.8,0,1.2-.2c.3,0,.6-.3.8-.5s.3-.5.3-.8,0-.5-.2-.7-.4-.3-.7-.5c-.3,0-.7-.3-1.1-.4l-1.3-.3c-1-.3-1.9-.7-2.5-1.2s-.9-1.3-.9-2.2.2-1.4.6-2,1-1,1.7-1.3,1.5-.5,2.4-.5,1.7.2,2.4.5,1.2.8,1.6,1.3c.4.6.6,1.2.6,1.9h-2.9q0,0,0,0Z"/>
        <path class="st1" d="M246.7,101.6v-12.4h8.3v2.2h-5.7v2.9h5.3v2.2h-5.3v3h5.7v2.2h-8.4.1q0,0,0,0Z"/>
        <path class="st1" d="M269,101.6h-2.8l4.3-12.4h3.4l4.3,12.4h-2.8l-3.1-9.5h0l-3.1,9.5h-.2,0ZM268.8,96.8h6.6v2h-6.6v-2Z"/>
        <path class="st1" d="M289.3,101.6v-12.4h4.9c.9,0,1.7.2,2.4.5s1.2.8,1.5,1.4.5,1.3.5,2.1-.2,1.5-.5,2.1c-.4.6-.9,1-1.5,1.4-.7.3-1.5.5-2.4.5h-3.3v-2.1h2.8c.5,0,.9,0,1.2-.2.3,0,.6-.3.7-.6s.2-.6.2-1,0-.8-.2-1c-.2-.3-.4-.5-.7-.6-.3,0-.8-.2-1.3-.2h-1.8v10.2h-2.6.1q0,0,0-.1ZM296,96l3.1,5.6h-2.9l-3-5.6h2.8Z"/>
        <path class="st1" d="M321.1,93.6h-2.6c0-.3-.1-.6-.3-.9-.1-.3-.3-.5-.6-.7s-.5-.3-.8-.4-.6-.2-1-.2c-.6,0-1.2.2-1.7.5s-.8.8-1.1,1.4-.4,1.3-.4,2.2.1,1.6.4,2.2.6,1.1,1.1,1.4,1,.5,1.6.5.7,0,1,0c.3,0,.6-.2.8-.4s.4-.4.6-.7c.2-.3.3-.6.3-.9h2.6c0,.6-.2,1.1-.5,1.7-.3.5-.6,1-1.1,1.4s-1,.7-1.6,1-1.3.4-2.1.4-2.1-.2-3-.7-1.6-1.2-2.1-2.2c-.5-.9-.8-2.1-.8-3.4s.3-2.5.8-3.4,1.2-1.7,2.1-2.2,1.8-.7,2.9-.7,1.4,0,2,.3c.6.2,1.2.5,1.6.9.5.4.9.9,1.2,1.4.3.6.5,1.2.6,1.9v-.3q.1,0,.1,0Z"/>
        <path class="st1" d="M332.7,101.6v-12.4h2.6v5.1h5.3v-5.1h2.6v12.4h-2.6v-5.1h-5.3v5.1h-2.6Z"/>
      </g>
    </g>
  </g>
</svg>