<?xml version="1.0" encoding="UTF-8" standalone="no"?>
<svg xmlns="http://www.w3.org/2000/svg" xmlns:xlink="http://www.w3.org/1999/xlink" version="1.1" width="700" height="700" viewBox="-158 14 700 700"><defs><linearGradient x1="-79.90842" y1="401.7261" x2="3.59674" y2="324.92955" gradientUnits="userSpaceOnUse" id="color-1"><stop offset="0" stop-color="#a6009c"/><stop offset="1" stop-color="#ff009c"/></linearGradient><linearGradient x1="-79.48869" y1="429.73378" x2="-22.56749" y2="331.12718" gradientUnits="userSpaceOnUse" id="color-2"><stop offset="0.00901" stop-color="#a6009c"/><stop offset="1" stop-color="#ff009c"/></linearGradient><linearGradient x1="-60.9065" y1="424.62792" x2="25.78907" y2="344.89734" gradientUnits="userSpaceOnUse" id="color-3"><stop offset="0" stop-color="#a6009c"/><stop offset="1" stop-color="#ff009c"/></linearGradient><linearGradient x1="312.97472" y1="362.70339" x2="435.08733" y2="362.70339" gradientUnits="userSpaceOnUse" id="color-4"><stop offset="0" stop-color="#8a009c"/><stop offset="1" stop-color="#ff009c"/></linearGradient><linearGradient x1="288.25138" y1="362.83932" x2="334.70311" y2="362.83932" gradientUnits="userSpaceOnUse" id="color-5"><stop offset="0" stop-color="#a6009c"/><stop offset="1" stop-color="#ff009c"/></linearGradient></defs><g id="document" fill-opacity="0" fill="#ffffff" fill-rule="nonzero" font-family="none" font-weight="none" font-size="none"><rect x="-158" y="10" transform="scale(1,1.4)" width="700" height="500" id="Shape-1-1"/></g><g fill="none" fill-rule="nonzero" stroke="none" stroke-width="1" stroke-linecap="butt" stroke-linejoin="miter" stroke-miterlimit="10" font-family="none" font-weight="none" font-size="none"><g><g id="stage"><g id="layer1-1"><g id="Group-1"><path d="M-43.84512,355.54186c-0.44402,-0.57048 -4.98992,-6.18369 -4.98992,-6.18369v35.57043c0,2.9068 2.35754,5.26416 5.28591,5.26416c2.92828,0 5.28608,-2.35736 5.28608,-5.26416l-0.07411,-23.44599c-1.62814,-1.45844 -3.17165,-3.08657 -5.50796,-5.94075z" id="Path-1" fill="url(#color-1)"/><path d="M4.35095,376.5042c-1.81845,0 -3.53121,-0.39114 -5.07516,-1.10984c-0.1162,1.10984 0.33852,4.64062 -5.24398,8.72083c-0.41219,0.28546 -19.11192,14.43541 -27.44596,16.80715c-3.6757,1.04605 -7.63802,1.60703 -11.07136,1.42024c-2.18745,-0.11901 -4.16018,-0.54157 -5.70724,-1.33561c-1.5436,-0.64459 -21.14499,-12.2937 -21.93792,-12.86462c-1.45901,-1.03573 -3.85898,-3.04405 -4.62017,-5.63381c-0.69782,-2.24116 -0.66608,-5.73993 -0.66608,-5.73993v-29.5981c0,-4.57703 1.35329,-12.7906 9.69499,-16.44806c8.96546,-3.30863 13.83936,1.88159 18.50185,7.5685c0.35948,0.4442 9.45167,12.45243 13.45865,16.01478c5.16988,4.6086 10.39282,6.96596 16.6835,6.96596c16.92642,0 23.3653,-13.38248 23.3653,-23.25568c-0.01052,-12.81148 -10.49849,-23.21306 -23.37583,-23.21306c-7.99292,0 -15.34081,4.0486 -19.59072,10.65526c0.78228,0.89852 2.7805,3.36152 3.08701,3.72091c0.08463,0.08459 3.44659,4.42913 3.62637,4.68284c0.58145,-0.70826 5.41325,-8.39314 12.86682,-8.39314c7.63335,0 12.59187,12.54719 12.59187,12.54719l-12.38052,12.48401c0,0 -6.59719,-1.42687 -9.77936,-4.27052c-3.18261,-2.84321 -11.15404,-13.41406 -11.15404,-13.41406c-0.69809,-0.93023 -6.20618,-7.58977 -10.14971,-10.21132c-4.92678,-3.3192 -11.85174,-5.30647 -21.08153,-2.21985c-9.22979,3.08667 -16.94773,13.05484 -16.94773,26.78624l0.04229,29.5981c0,1.13088 -0.08458,4.81996 0.83523,8.29768c1.50129,5.7294 4.23956,8.96419 9.917,12.49453c2.70658,1.52246 18.30098,10.85631 20.71153,12.14593c4.57786,2.43147 9.12406,3.6575 15.22456,3.66802c4.70463,0.01052 9.28254,-1.1414 13.1628,-3.16068c6.24814,-3.18173 24.85537,-15.14888 26.34044,-16.09524c5.95216,-4.01707 12.29114,-11.24066 11.79432,-19.00995c-1.69172,0.87743 -3.62637,1.3953 -5.67722,1.3953z" id="Path-1-1" fill="url(#color-2)"/><path d="M4.372,370.79541c3.4251,0 6.20561,-2.75902 6.20561,-6.18368c0,-3.40361 -2.78051,-6.18369 -6.20561,-6.18369c-3.4251,0 -6.20561,2.75859 -6.20561,6.18369c0,3.42466 2.78051,6.18368 6.20561,6.18368z" id="Path-1-2" fill="url(#color-3)"/><path d="M46.85227,409.61817c-3.29881,0 -5.82105,-2.71649 -5.82105,-5.82105v-43.0753c0,-8.14946 5.6268,-20.95577 22.50805,-20.95577c2.9103,0 20.95532,0.00001 20.95532,23.67226c0,22.89612 -13.19393,24.25414 -18.62691,24.25414c-7.17951,0 -11.83635,-4.46259 -13.19437,-6.98526v23.08993c0,3.10456 -2.52267,5.82105 -5.82104,5.82105zM72.46487,363.82638c0,-4.46302 -0.77614,-7.95566 -2.52267,-10.47789c-1.74609,-2.52267 -4.26877,-3.68688 -7.37333,-3.68688c-3.10456,0 -5.62679,1.16421 -7.37332,3.68688c-1.55228,2.13416 -2.32842,5.6268 -2.32842,10.47789c0,4.46258 0.77614,7.7614 2.52267,9.89556c1.74609,2.52267 4.26877,3.68688 7.37333,3.68688c2.9103,0 5.43298,-1.16421 7.17907,-3.68688c1.74653,-2.32842 2.52267,-5.62679 2.52267,-9.89556z" id="CompoundPath-1" fill="#f2f2f2"/><path d="M152.02268,386.91675c-3.49263,0 -6.40337,-2.71649 -6.40337,-6.01486v-33.95589c0,-3.29881 2.91074,-6.0153 6.40337,-6.0153c3.49263,0 6.40293,2.71649 6.40293,6.0153v33.95589c0,3.29837 -2.9103,6.01486 -6.40293,6.01486z" id="Path-1-3" fill="#f2f2f2"/><path d="M152.09547,319.85167c0,0 -6.67305,3.06957 -6.67305,6.79228c0,3.72266 3.01599,6.79222 6.67305,6.79222c3.6575,0 6.67304,-3.06956 6.67304,-6.79222c0,-3.72271 -6.67304,-6.79228 -6.67304,-6.79228z" id="Path-1-4" fill="#f2f2f2"/><path d="M206.38051,318.42353c-3.29881,0 -5.82105,2.71649 -5.82105,5.82105v22.70186c-1.35846,-2.13416 -3.29881,-4.07452 -5.62723,-5.43298c-2.13416,-1.16421 -4.65684,-1.74609 -7.56714,-1.74609c-5.43298,0 -9.896,2.32842 -13.38863,6.791c-3.29837,4.46302 -5.04447,10.28407 -5.04447,17.46314c0,7.37333 1.7461,13.19437 5.04447,17.46314c1.74653,2.1346 4.07496,3.8807 6.98526,4.85109c2.91074,0.96996 5.82104,1.55228 8.9256,1.55228c5.62723,0 10.67214,-1.35847 15.52279,-4.26877c4.65684,-2.91074 7.17951,-8.53754 7.17951,-16.687v-42.68767c-0.19425,-3.29859 -2.91074,-5.82105 -6.20911,-5.82105zM198.23104,374.11132c-1.74653,2.52267 -4.07495,3.68688 -7.37332,3.68688c-3.29881,0 -5.82105,-1.16421 -7.37333,-3.68688c-1.74653,-2.52223 -2.52267,-6.01486 -2.52267,-10.47788c0,-4.07451 0.77614,-7.37332 2.52267,-9.70174c1.74609,-2.52223 4.07451,-3.68645 7.17907,-3.68645c3.10456,0 5.62724,1.16421 7.37333,3.49263c1.74653,2.52223 2.52267,5.82105 2.52267,9.89556c0,4.46302 -0.77614,8.14946 -2.32842,10.47788z" id="CompoundPath-1-1" fill="#f2f2f2"/><path d="M129.18707,387.07154c3.29881,0 5.82105,-2.71649 5.82105,-5.82105v-21.14958c0,-8.14946 -5.6268,-20.95577 -22.50805,-20.95577c-2.9103,0 -20.95532,0.00001 -20.95532,23.67226c0,22.89612 13.19393,24.25414 18.62691,24.25414c7.17951,0 11.83635,-4.46259 13.19437,-6.98526v1.16421c0,3.10456 2.52267,5.82105 5.82104,5.82105zM103.57491,363.20547c0,-4.46302 0.7757,-7.95566 2.52223,-10.47789c1.74609,-2.52267 4.26877,-3.68688 7.37333,-3.68688c3.10456,0 5.62679,1.16421 7.37332,3.68688c1.55228,2.13416 2.32842,5.6268 2.32842,10.47789c0,4.46258 -0.77614,7.7614 -2.52267,9.89556c-1.74609,2.52267 -4.26877,3.68688 -7.37333,3.68688c-2.9103,0 -5.43298,-1.16421 -7.17907,-3.68688c-1.74653,-2.32842 -2.52223,-5.62679 -2.52223,-9.89556z" id="CompoundPath-1-2" fill="#f2f2f2"/><path d="M226.75702,406.12554c0,1.74609 1.55228,3.10456 3.10456,3.29838c3.49263,0.38807 9.11941,0.38806 12.22397,-2.13417c2.1346,-1.74653 3.8807,-4.26876 5.23916,-8.14946l15.13429,-50.64289c1.35846,-3.8807 -1.55229,-7.76139 -5.6268,-7.76139c-2.71649,0 -5.04491,1.7461 -5.62723,4.26877l-8.14902,28.32909l-8.14947,-28.13528c-0.77614,-2.71649 -3.10456,-4.46258 -6.0153,-4.46258c-4.26877,0 -7.17906,4.26876 -5.82104,8.14946l13.19437,43.65763c0.77614,2.52223 0.58232,4.26876 -0.77614,5.23872c-1.35802,1.16421 -3.10456,1.74654 -5.43298,1.74654c-1.74609,0 -3.29837,1.55228 -3.29837,3.29837z" id="Path-1-5" fill="#f2f2f2"/><path d="M388.54089,316.15186c-12.43139,0 -24.12172,4.84166 -32.91358,13.63357c-2.7713,2.7724 -12.37789,17.09304 -12.37789,17.09304l-28.41372,43.01611c-3.41501,5.17032 -1.99297,12.12707 3.17647,15.54252c1.90308,1.25805 4.04996,1.85923 6.17097,1.85923c3.64172,0 7.21283,-1.77109 9.3698,-5.03614l12.92689,-19.5688l16.60193,-25.09386c0,0 6.20911,-9.48688 7.24835,-10.68485c4.42443,-5.0984 10.94489,-8.32531 18.21078,-8.32531c13.61094,0 24.62599,11.34216 24.09102,25.0715c-0.48673,12.49409 -10.59409,22.6282 -23.08687,23.13861c-12.39631,0.5069 -20.38572,-7.27905 -23.76653,-15.37809c-0.51304,-1.35934 -2.06093,-0.99232 -2.73622,0.03157l-11.23429,16.19808c-1.00854,1.60578 0.10524,2.99668 0.10524,2.99668c0,0 1.68383,2.38674 3.81931,4.52222c8.79186,8.79186 20.37256,14.08715 32.80395,14.08715c12.43139,0 24.12172,-4.84143 32.91358,-13.63549c8.79186,-8.79186 13.63287,-20.48219 13.63287,-32.91621c0,-12.43358 -4.84101,-24.12391 -13.63287,-32.91595c-8.78748,-8.79191 -20.4778,-13.63558 -32.90919,-13.63558z" id="Path-1-6" fill="url(#color-4)"/><path d="M312.33407,398.06641v-49.01431l-6.49721,4.53406c-5.06464,3.53516 -12.03718,2.29465 -15.57234,-2.77218c-3.53516,-5.06508 -2.29465,-12.03761 2.77218,-15.57264l24.08093,-16.80277c3.41721,-2.38472 7.87717,-2.67233 11.57194,-0.74496c3.69477,1.92733 6.01179,5.75005 6.01179,9.9163v70.4565c0,6.17754 -5.0072,11.18474 -11.18474,11.18474c-6.17754,0 -11.18255,-5.0072 -11.18255,-11.18474z" id="Path-1-7" fill="url(#color-5)"/><path d="M454.69253,346.13171c-1.71891,0 -2.9467,-1.04932 -2.9467,-3.06641v-23.88725c0,-1.89641 1.08747,-3.02619 2.90285,-3.02619c1.81538,0 2.88531,1.12978 2.88531,3.02619v8.75591h0.12278c1.14886,-2.72359 3.50797,-4.25688 6.7967,-4.25688c4.80154,0 7.54653,3.10692 7.54653,8.11026v11.27796c0,2.01709 -1.21025,3.06641 -2.9467,3.06641c-1.71452,0 -2.94231,-1.04932 -2.94231,-3.06641v-10.0271c0,-2.78415 -1.3725,-4.47881 -4.0561,-4.47881c-2.78446,0 -4.42005,1.95692 -4.42005,4.80158v9.70433c0,2.01709 -1.21025,3.06641 -2.94231,3.06641z" id="Path-1-8" fill="#e6019d"/><path d="M438.49007,340.18087v-11.6609h-1.13132c-1.39004,0 -2.28019,-0.84736 -2.28019,-2.21924c0,-1.37188 0.89015,-2.21923 2.28019,-2.21923h1.13132v-2.40081c0,-1.89646 1.10939,-3.06659 2.94231,-3.06659c1.8373,0 2.9467,1.17013 2.9467,3.06659v2.40081h2.07848c1.39004,0 2.25825,0.86752 2.25825,2.21923c0,1.35171 -0.86821,2.21924 -2.25825,2.21924h-2.07848v10.3498c0,1.53299 0.5262,2.17889 1.79784,2.27974l0.38149,0.04034c1.45142,0.16137 2.24072,0.76649 2.24072,2.13855c0,1.73513 -1.69699,2.62265 -4.17888,2.62265h-0.2017c-3.93332,0 -5.92848,-1.95701 -5.92848,-5.77018z" id="Path-1-9" fill="#e6019d"/></g></g></g></g></g></svg>