<?xml version="1.0" encoding="UTF-8"?>
<svg version="1.1" xmlns="http://www.w3.org/2000/svg" width="300" height="77">
<path d="M0 0 C3.375 -0.125 3.375 -0.125 7 0 C9 2 9 2 9.24050903 3.87295532 C9.23606781 4.63240448 9.23162659 5.39185364 9.22705078 6.17431641 C9.22682419 7.46542831 9.22682419 7.46542831 9.22659302 8.78262329 C9.21627045 9.71287323 9.20594788 10.64312317 9.1953125 11.6015625 C9.1924826 12.55316254 9.18965271 13.50476257 9.18673706 14.48519897 C9.17551989 17.53192592 9.15041263 20.57836154 9.125 23.625 C9.11497218 25.68749576 9.10584599 27.74999612 9.09765625 29.8125 C9.07557554 34.87511267 9.0410353 39.9375069 9 45 C6.125 45.125 6.125 45.125 3 45 C-0.0353661 41.9646339 0.52398813 38.40014301 0.375 34.3125 C0.33705322 33.44141602 0.29910645 32.57033203 0.26000977 31.67285156 C-0.15127069 21.11945102 -0.09340534 10.55911466 0 0 Z " fill="#333333" transform="translate(25,9)"/>
<path d="M0 0 C5.50697184 -0.36713146 5.50697184 -0.36713146 7.67793274 1.24946594 C9.31107277 3.41188788 9.36479172 4.50811911 9.34057617 7.19604492 C9.34034958 8.03668991 9.34012299 8.8773349 9.33988953 9.74345398 C9.32440567 10.64666885 9.30892181 11.54988373 9.29296875 12.48046875 C9.28872391 13.40845779 9.28447906 14.33644684 9.28010559 15.29255676 C9.26330662 18.25783243 9.22565216 21.2224296 9.1875 24.1875 C9.17245474 26.19725581 9.15876606 28.20702227 9.14648438 30.21679688 C9.11339908 35.14479286 9.06160833 40.07228138 9 45 C6.125 45.125 6.125 45.125 3 45 C0.61556332 42.61556332 0.73816495 42.07540218 0.68115234 38.82568359 C0.66128265 37.96494232 0.64141296 37.10420105 0.62094116 36.21737671 C0.60938995 35.28712677 0.59783875 34.35687683 0.5859375 33.3984375 C0.56657135 32.44683746 0.5472052 31.49523743 0.5272522 30.51480103 C0.46735868 27.46829253 0.42103205 24.42174646 0.375 21.375 C0.33682921 19.3124833 0.29777802 17.2499827 0.2578125 15.1875 C0.16164914 10.12513034 0.07765437 5.06268605 0 0 Z " fill="#333333" transform="translate(68,26)"/>
<path d="M0 0 C3.375 -0.125 3.375 -0.125 7 0 C9 2 9 2 9.22705078 5.80712891 C9.22673346 7.4469742 9.21539681 9.08684017 9.1953125 10.7265625 C9.1924826 11.58937836 9.18965271 12.45219421 9.18673706 13.34115601 C9.17552333 16.1025772 9.15041684 18.8636765 9.125 21.625 C9.11497173 23.49478699 9.10584562 25.36457905 9.09765625 27.234375 C9.07558012 31.82304109 9.04104234 36.41146593 9 41 C6.1875 41.3125 6.1875 41.3125 3 41 C-0.65326147 37.10943266 -0.39570951 32.69052838 -0.29296875 27.63671875 C-0.28872391 26.84473587 -0.28447906 26.05275299 -0.28010559 25.23677063 C-0.26338163 22.71999373 -0.22574225 20.20403276 -0.1875 17.6875 C-0.17244499 15.97592307 -0.15875801 14.26433351 -0.14648438 12.55273438 C-0.11349885 8.36817767 -0.06176098 4.18422693 0 0 Z " fill="#333333" transform="translate(36,20)"/>
<path d="M0 0 C3.12106779 -0.34678531 4.6127692 -0.2487334 7.28808594 1.46972656 C9.70611747 5.0436682 9.49953276 8.32388589 9.390625 12.484375 C9.38496521 13.29996887 9.37930542 14.11556274 9.37347412 14.95587158 C9.35112727 17.55451772 9.30093622 20.15177242 9.25 22.75 C9.22993271 24.51430297 9.21168234 26.2786276 9.1953125 28.04296875 C9.1512683 32.36251328 9.08225422 36.68102093 9 41 C5.625 41.125 5.625 41.125 2 41 C0 39 0 39 -0.22705078 35.19287109 C-0.22673346 33.5530258 -0.21539681 31.91315983 -0.1953125 30.2734375 C-0.1924826 29.41062164 -0.18965271 28.54780579 -0.18673706 27.65884399 C-0.17552333 24.8974228 -0.15041684 22.1363235 -0.125 19.375 C-0.11497173 17.50521301 -0.10584562 15.63542095 -0.09765625 13.765625 C-0.07558012 9.17695891 -0.04104234 4.58853407 0 0 Z " fill="#333333" transform="translate(58,19)"/>
<path d="M0 0 C2.97 0 5.94 0 9 0 C9.04942365 5.072007 9.08573068 10.14387394 9.10986328 15.21606445 C9.11992326 16.94167523 9.13357276 18.66726895 9.15087891 20.39282227 C9.17512754 22.8726014 9.18648301 25.35215523 9.1953125 27.83203125 C9.20563507 28.60400345 9.21595764 29.37597565 9.22659302 30.17134094 C9.22739422 33.99281476 9.17242595 35.74136107 7 39 C4.69 39 2.38 39 0 39 C0 26.13 0 13.26 0 0 Z " fill="#333333" transform="translate(79,29)"/>
<path d="M0 0 C0.94875 0.04125 1.8975 0.0825 2.875 0.125 C4.48801773 3.35103545 3.99553599 6.87210038 3.97265625 10.4140625 C3.9712413 11.23248627 3.96982635 12.05091003 3.96836853 12.89413452 C3.9627629 15.51279325 3.95020948 18.13136704 3.9375 20.75 C3.93248572 22.52343627 3.92792269 24.29687387 3.92382812 26.0703125 C3.91279164 30.42190782 3.89552325 34.7734395 3.875 39.125 C0.905 39.125 -2.065 39.125 -5.125 39.125 C-5.17435824 33.89226669 -5.21069949 28.65966824 -5.23486328 23.42675781 C-5.24493431 21.64580933 -5.25859185 19.86487743 -5.27587891 18.08398438 C-5.30007913 15.52730217 -5.31147184 12.97083815 -5.3203125 10.4140625 C-5.33063507 9.61505524 -5.34095764 8.81604797 -5.35159302 7.99282837 C-5.35199226 6.0354278 -5.24741069 4.07856923 -5.125 2.125 C-3.125 0.125 -3.125 0.125 0 0 Z " fill="#333333" transform="translate(20.125,11.875)"/>
<path d="M0 0 C1.670625 0.061875 1.670625 0.061875 3.375 0.125 C3.42439115 4.21838652 3.46071501 8.31165798 3.48486328 12.40527344 C3.49492877 13.79820781 3.50858234 15.19112102 3.52587891 16.58398438 C3.5501022 18.5845436 3.56040814 20.58525615 3.5703125 22.5859375 C3.58078613 23.79040527 3.59125977 24.99487305 3.60205078 26.23583984 C3.375 29.125 3.375 29.125 1.375 31.125 C-2.25 31.25 -2.25 31.25 -5.625 31.125 C-5.67439115 27.03161348 -5.71071501 22.93834202 -5.73486328 18.84472656 C-5.74492877 17.45179219 -5.75858234 16.05887898 -5.77587891 14.66601562 C-5.8001022 12.6654564 -5.81040814 10.66474385 -5.8203125 8.6640625 C-5.83078613 7.45959473 -5.84125977 6.25512695 -5.85205078 5.01416016 C-5.49920841 0.52433578 -4.4290971 0.15272749 0 0 Z " fill="#333333" transform="translate(9.625,22.875)"/>
<path d="M0 0 C0.94875 0.04125 1.8975 0.0825 2.875 0.125 C2.89965622 4.37914623 2.91783899 8.63325498 2.92993164 12.88745117 C2.93497101 14.33570073 2.94180253 15.78394517 2.95043945 17.23217773 C2.96252247 19.30974588 2.96823211 21.38724697 2.97265625 23.46484375 C2.97789307 24.71644287 2.98312988 25.96804199 2.98852539 27.25756836 C2.875 30.125 2.875 30.125 1.875 31.125 C-0.45797433 31.16592937 -2.79205225 31.16741723 -5.125 31.125 C-5.17439115 27.03161348 -5.21071501 22.93834202 -5.23486328 18.84472656 C-5.24492877 17.45179219 -5.25858234 16.05887898 -5.27587891 14.66601562 C-5.3001022 12.6654564 -5.31040814 10.66474385 -5.3203125 8.6640625 C-5.33078613 7.45959473 -5.34125977 6.25512695 -5.35205078 5.01416016 C-5.02510937 0.85391859 -4.14979922 0.16599197 0 0 Z " fill="#333333" transform="translate(95.125,25.875)"/>
<path d="M0 0 C1.32 0 2.64 0 4 0 C5.484375 1.75 5.484375 1.75 6.75 4 C7.17796875 4.7425 7.6059375 5.485 8.046875 6.25 C8.36140625 6.8275 8.6759375 7.405 9 8 C9.33 5.69 9.66 3.38 10 1 C11.32 0.67 12.64 0.34 14 0 C14 6.6 14 13.2 14 20 C9 19 9 19 7.63671875 17.37109375 C6.31835938 14.68554688 6.31835938 14.68554688 5 12 C4.67 14.31 4.34 16.62 4 19 C2.0625 19.5625 2.0625 19.5625 0 20 C-1.5220959 18.4779041 -1.12959521 17.11789918 -1.1328125 15 C-1.13410156 14.195625 -1.13539063 13.39125 -1.13671875 12.5625 C-1.13285156 11.716875 -1.12898437 10.87125 -1.125 10 C-1.12886719 9.154375 -1.13273438 8.30875 -1.13671875 7.4375 C-1.13542969 6.633125 -1.13414062 5.82875 -1.1328125 5 C-1.13168457 4.2575 -1.13055664 3.515 -1.12939453 2.75 C-1 1 -1 1 0 0 Z " fill="#333333" transform="translate(246,30)"/>
<path d="M0 0 C1.65 0 3.3 0 5 0 C5.66 1.65 6.32 3.3 7 5 C7.7425 4.175 8.485 3.35 9.25 2.5 C12 0 12 0 16 0 C15.50574406 2.66898207 14.88486426 4.16630717 13.3125 6.4375 C11.67225398 8.93833831 11.67225398 8.93833831 12.6875 11.625 C14.03979263 14.14965488 14.03979263 14.14965488 16 17 C16 17.99 16 18.98 16 20 C13.6875 20.3125 13.6875 20.3125 11 20 C9.1875 17.5 9.1875 17.5 8 15 C7.13375 16.2375 7.13375 16.2375 6.25 17.5 C5.5075 18.325 4.765 19.15 4 20 C2.68 20 1.36 20 0 20 C0.49425594 17.33101793 1.11513574 15.83369283 2.6875 13.5625 C4.32268415 11.08613988 4.32268415 11.08613988 3.3125 8.5625 C2.879375 7.716875 2.44625 6.87125 2 6 C1.32204472 4.00379834 0.65266469 2.00461299 0 0 Z " fill="#333333" transform="translate(170,30)"/>
<path d="M0 0 C1.670625 0.061875 1.670625 0.061875 3.375 0.125 C3.43291844 3.24992251 3.46856746 6.37470766 3.5 9.5 C3.51675781 10.38945313 3.53351562 11.27890625 3.55078125 12.1953125 C3.55722656 13.04609375 3.56367187 13.896875 3.5703125 14.7734375 C3.58078613 15.55895996 3.59125977 16.34448242 3.60205078 17.15380859 C3.375 19.125 3.375 19.125 1.375 21.125 C-2.25 21.25 -2.25 21.25 -5.625 21.125 C-5.68291844 18.00007749 -5.71856746 14.87529234 -5.75 11.75 C-5.76675781 10.86054687 -5.78351562 9.97109375 -5.80078125 9.0546875 C-5.80722656 8.20390625 -5.81367187 7.353125 -5.8203125 6.4765625 C-5.83078613 5.69104004 -5.84125977 4.90551758 -5.85205078 4.09619141 C-5.39963225 0.16842017 -3.67413221 0.12669421 0 0 Z " fill="#333333" transform="translate(52.625,41.875)"/>
<path d="M0 0 C1.51400391 0.01740234 1.51400391 0.01740234 3.05859375 0.03515625 C4.07050781 0.04417969 5.08242187 0.05320312 6.125 0.0625 C7.29869141 0.07990234 7.29869141 0.07990234 8.49609375 0.09765625 C8.49609375 1.41765625 8.49609375 2.73765625 8.49609375 4.09765625 C6.18609375 4.09765625 3.87609375 4.09765625 1.49609375 4.09765625 C1.49609375 5.41765625 1.49609375 6.73765625 1.49609375 8.09765625 C3.80609375 8.09765625 6.11609375 8.09765625 8.49609375 8.09765625 C8.49609375 9.08765625 8.49609375 10.07765625 8.49609375 11.09765625 C6.18609375 11.09765625 3.87609375 11.09765625 1.49609375 11.09765625 C1.49609375 12.74765625 1.49609375 14.39765625 1.49609375 16.09765625 C4.13609375 16.09765625 6.77609375 16.09765625 9.49609375 16.09765625 C9.16609375 17.41765625 8.83609375 18.73765625 8.49609375 20.09765625 C6.68367323 20.12452904 4.87114142 20.1439934 3.05859375 20.16015625 C2.04925781 20.17175781 1.03992188 20.18335937 0 20.1953125 C-2.50390625 20.09765625 -2.50390625 20.09765625 -3.50390625 19.09765625 C-3.60227835 17.76722 -3.63469217 16.43172281 -3.63671875 15.09765625 C-3.63800781 14.29328125 -3.63929688 13.48890625 -3.640625 12.66015625 C-3.63675781 11.81453125 -3.63289062 10.96890625 -3.62890625 10.09765625 C-3.63277344 9.25203125 -3.63664063 8.40640625 -3.640625 7.53515625 C-3.63933594 6.73078125 -3.63804687 5.92640625 -3.63671875 5.09765625 C-3.63559082 4.35515625 -3.63446289 3.61265625 -3.63330078 2.84765625 C-3.42332879 0.00788411 -2.84774008 0.11106631 0 0 Z " fill="#333333" transform="translate(158.50390625,29.90234375)"/>
<path d="M0 0 C1.670625 0.061875 1.670625 0.061875 3.375 0.125 C3.45586376 3.06304996 3.5154283 5.99888075 3.5625 8.9375 C3.58763672 9.77087891 3.61277344 10.60425781 3.63867188 11.46289062 C3.65317383 12.66655273 3.65317383 12.66655273 3.66796875 13.89453125 C3.69153442 15.00211792 3.69153442 15.00211792 3.71557617 16.13208008 C3.27485067 18.71103514 2.45713371 19.57995699 0.375 21.125 C-2.8125 21.3125 -2.8125 21.3125 -5.625 21.125 C-5.68291844 18.00007749 -5.71856746 14.87529234 -5.75 11.75 C-5.76675781 10.86054688 -5.78351562 9.97109375 -5.80078125 9.0546875 C-5.80722656 8.20390625 -5.81367187 7.353125 -5.8203125 6.4765625 C-5.83078613 5.69104004 -5.84125977 4.90551758 -5.85205078 4.09619141 C-5.39963225 0.16842017 -3.67413221 0.12669421 0 0 Z " fill="#333333" transform="translate(52.625,16.875)"/>
<path d="M0 0 C0.99 0.66 1.98 1.32 3 2 C3 2.99 3 3.98 3 5 C-0.3 5 -3.6 5 -7 5 C-7 8.3 -7 11.6 -7 15 C-3.7 15 -0.4 15 3 15 C3 16.32 3 17.64 3 19 C-0.60572704 20.20190901 -3.2102435 20.32670315 -7 20 C-10.38939556 17.86320715 -11.72582557 16.8225233 -13 13 C-13.38887761 8.80012182 -13.45908323 6.70392762 -11.125 3.125 C-7.53296596 -0.46703404 -4.99764704 -0.26303405 0 0 Z " fill="#333333" transform="translate(276,30)"/>
<path d="M0 0 C3.96 0 7.92 0 12 0 C12 1.32 12 2.64 12 4 C9.36 4 6.72 4 4 4 C4 5.32 4 6.64 4 8 C6.31 8 8.62 8 11 8 C11 8.99 11 9.98 11 11 C8.69 11 6.38 11 4 11 C4 12.65 4 14.3 4 16 C6.64 16 9.28 16 12 16 C11.67 17.32 11.34 18.64 11 20 C7.37 20 3.74 20 0 20 C0 13.4 0 6.8 0 0 Z " fill="#333333" transform="translate(125,30)"/>
<path d="M0 0 C3.96 0 7.92 0 12 0 C11.67 1.32 11.34 2.64 11 4 C8.69 4 6.38 4 4 4 C4 5.32 4 6.64 4 8 C6.31 8 8.62 8 11 8 C11 8.99 11 9.98 11 11 C8.69 11 6.38 11 4 11 C4 12.65 4 14.3 4 16 C6.64 16 9.28 16 12 16 C11.67 17.32 11.34 18.64 11 20 C7.37 20 3.74 20 0 20 C0 13.4 0 6.8 0 0 Z " fill="#333333" transform="translate(283,30)"/>
<path d="M0 0 C3.96 0 7.92 0 12 0 C11.67 1.32 11.34 2.64 11 4 C8.69 4 6.38 4 4 4 C4 5.32 4 6.64 4 8 C6.31 8 8.62 8 11 8 C11 8.99 11 9.98 11 11 C8.69 11 6.38 11 4 11 C4 12.65 4 14.3 4 16 C6.64 16 9.28 16 12 16 C11.67 17.32 11.34 18.64 11 20 C7.37 20 3.74 20 0 20 C0 13.4 0 6.8 0 0 Z " fill="#333333" transform="translate(230,30)"/>
<path d="M0 0 C0 1.32 0 2.64 0 4 C-1.65 4 -3.3 4 -5 4 C-5.33 4.66 -5.66 5.32 -6 6 C-5.236875 6.2475 -4.47375 6.495 -3.6875 6.75 C-0.68358949 8.14716768 0.49028209 9.06443741 2 12 C1.875 14.625 1.875 14.625 1 17 C-2.46998729 19.31332486 -3.92509248 19.33957563 -8 19 C-8.99 18.34 -9.98 17.68 -11 17 C-10.505 15.515 -10.505 15.515 -10 14 C-8.02 14 -6.04 14 -4 14 C-4.804375 13.195625 -5.60875 12.39125 -6.4375 11.5625 C-10 8 -10 8 -10.25 4.5625 C-10.1675 3.386875 -10.085 2.21125 -10 1 C-6.1496895 -1.56687367 -4.41430237 -0.83288724 0 0 Z " fill="#333333" transform="translate(208,31)"/>
<path d="M0 0 C4.95 0 9.9 0 15 0 C15 1.32 15 2.64 15 4 C13.02 4 11.04 4 9 4 C9 9.28 9 14.56 9 20 C7.68 20 6.36 20 5 20 C5 14.72 5 9.44 5 4 C3.02 4 1.04 4 -1 4 C-0.67 2.68 -0.34 1.36 0 0 Z " fill="#333333" transform="translate(107,30)"/>
<path d="M0 0 C4.95 0 9.9 0 15 0 C15 1.32 15 2.64 15 4 C13.02 4 11.04 4 9 4 C9 8.95 9 13.9 9 19 C7.68 19.33 6.36 19.66 5 20 C5 14.72 5 9.44 5 4 C3.35 4 1.7 4 0 4 C0 2.68 0 1.36 0 0 Z " fill="#333333" transform="translate(212,30)"/>
<path d="M0 0 C0.99 0 1.98 0 3 0 C3 5.28 3 10.56 3 16 C5.64 16 8.28 16 11 16 C10.67 17.32 10.34 18.64 10 20 C6.37 20 2.74 20 -1 20 C-1.02683697 16.85411056 -1.04675902 13.70844729 -1.0625 10.5625 C-1.07087891 9.66466797 -1.07925781 8.76683594 -1.08789062 7.84179688 C-1.09111328 6.98779297 -1.09433594 6.13378906 -1.09765625 5.25390625 C-1.10551147 4.06776733 -1.10551147 4.06776733 -1.11352539 2.85766602 C-1 1 -1 1 0 0 Z " fill="#333333" transform="translate(142,30)"/>
<path d="M0 0 C1.32 0 2.64 0 4 0 C4.02689449 2.95839355 4.04678741 5.91654427 4.0625 8.875 C4.07087891 9.71675781 4.07925781 10.55851562 4.08789062 11.42578125 C4.09111328 12.23144531 4.09433594 13.03710938 4.09765625 13.8671875 C4.10289307 14.61081543 4.10812988 15.35444336 4.11352539 16.12060547 C4 18 4 18 3 20 C1.68 20 0.36 20 -1 20 C-1.02888514 16.85418577 -1.04675923 13.70840531 -1.0625 10.5625 C-1.07087891 9.66466797 -1.07925781 8.76683594 -1.08789062 7.84179688 C-1.09111328 6.98779297 -1.09433594 6.13378906 -1.09765625 5.25390625 C-1.10551147 4.06776733 -1.10551147 4.06776733 -1.11352539 2.85766602 C-1 1 -1 1 0 0 Z " fill="#333333" transform="translate(190,30)"/>
</svg>
