<?xml version="1.0" encoding="UTF-8"?>
<svg version="1.1" xmlns="http://www.w3.org/2000/svg" width="1000" height="180">
<path d="M0 0 C3.48533503 2.85937687 6.78470258 5.84081597 10 9 C10.62519531 9.61230469 11.25039062 10.22460938 11.89453125 10.85546875 C22.66773036 22.26095494 31 39.32855618 31 55 C22.75 55 14.5 55 6 55 C4.02 50.545 4.02 50.545 2 46 C-5.78576966 30.13623339 -16.02634604 19.07187621 -33 13 C-49.42547403 8.02014968 -64.86494719 9.48766247 -80.0625 17.375 C-93.73810501 25.38187329 -101.16270721 36.81038375 -106.90625 51.296875 C-108 54 -108 54 -109 55 C-110.85369611 55.08737645 -112.71067541 55.10698153 -114.56640625 55.09765625 C-115.69111328 55.09443359 -116.81582031 55.09121094 -117.97460938 55.08789062 C-119.15861328 55.07951172 -120.34261719 55.07113281 -121.5625 55.0625 C-122.75037109 55.05798828 -123.93824219 55.05347656 -125.16210938 55.04882812 C-128.10812226 55.03699675 -131.05403681 55.02051287 -134 55 C-134.69777719 38.46479499 -124.6097329 21.95143064 -114 10 C-113.41992188 9.32582031 -112.83984375 8.65164062 -112.2421875 7.95703125 C-83.57594354 -23.12909045 -32.80910399 -25.20587062 0 0 Z " fill="#414141" transform="translate(139,23)"/>
<path d="M0 0 C20.46 0 40.92 0 62 0 C62 5.28 62 10.56 62 16 C47.81 16 33.62 16 19 16 C19 21.61 19 27.22 19 33 C31.54 33 44.08 33 57 33 C57 37.95 57 42.9 57 48 C44.46 48 31.92 48 19 48 C19 53.61 19 59.22 19 65 C33.52 65 48.04 65 63 65 C63 70.28 63 75.56 63 81 C42.21 81 21.42 81 0 81 C0 54.27 0 27.54 0 0 Z " fill="#414141" transform="translate(929,49)"/>
<path d="M0 0 C10.51727109 6.59695153 10.51727109 6.59695153 13 12 C10.88094537 14.17277714 8.75527122 16.33826908 6.625 18.5 C6.02171875 19.12003906 5.4184375 19.74007812 4.796875 20.37890625 C4.21679688 20.96542969 3.63671875 21.55195312 3.0390625 22.15625 C2.50490723 22.70087891 1.97075195 23.24550781 1.42041016 23.80664062 C0 25 0 25 -2 25 C-3.66666667 23.33333333 -5.33333333 21.66666667 -7 20 C-12.5119743 16.23572487 -17.34397723 15.36955704 -24 16 C-30.03537019 17.14959432 -33.71845827 20.00385395 -37.51953125 24.76171875 C-41.26481582 30.42411468 -42.72387782 36.06186835 -41.640625 42.796875 C-39.90983397 48.74910757 -36.28407207 53.75750123 -31 57 C-24.98006113 59.82184635 -19.46810321 60.90036307 -13 59 C-9.40759398 57.25708748 -6.18290318 55.27897654 -3.4609375 52.3359375 C-2 51 -2 51 1 51 C2.6484375 52.5390625 2.6484375 52.5390625 4.375 54.625 C4.98214844 55.34945312 5.58929687 56.07390625 6.21484375 56.8203125 C6.80394531 57.53960937 7.39304687 58.25890625 8 59 C8.97891088 60.1668813 9.958041 61.33357874 10.9375 62.5 C11.618125 63.325 12.29875 64.15 13 65 C5.36906879 73.80291723 -4.30819405 79.25730897 -15.92578125 80.25 C-29.11375994 80.75540757 -40.41484576 76.92437855 -50.15234375 68.03515625 C-59.34546001 58.56812964 -62.35599527 47.22488029 -62.2109375 34.34375 C-61.47789575 22.72368083 -55.56079131 12.67187107 -47.2109375 4.75390625 C-34.3750301 -5.4286422 -14.54647743 -8.05651058 0 0 Z " fill="#414141" transform="translate(714,52)"/>
<path d="M0 0 C10 0 10 0 12.99609375 2.3515625 C13.84124046 3.41861456 14.65402298 4.51187969 15.4375 5.625 C15.89012207 6.21112061 16.34274414 6.79724121 16.80908203 7.40112305 C17.75822358 8.63467921 18.69433718 9.87836069 19.61767578 11.13134766 C21.36939245 13.49935179 23.1954568 15.80291619 25.02636719 18.10986328 C26.39540146 19.83825666 27.75102889 21.57656057 29.10546875 23.31640625 C32.24858569 27.33581245 35.46396109 31.29498003 38.6875 35.25 C39.23696289 35.92426025 39.78642578 36.59852051 40.35253906 37.29321289 C40.88717773 37.94926514 41.42181641 38.60531738 41.97265625 39.28125 C46.73346358 45.12331535 51.47794095 50.97058793 56 57 C56.33 38.19 56.66 19.38 57 0 C60.96 0 64.92 0 69 0 C69 26.73 69 53.46 69 81 C58 81 58 81 55.01171875 78.53515625 C54.20198967 77.40180411 53.42867993 76.24182207 52.6875 75.0625 C51.77806311 73.76979088 50.86513506 72.47953266 49.94921875 71.19140625 C49.47661621 70.5070752 49.00401367 69.82274414 48.51708984 69.11767578 C45.86982042 65.42240462 42.92143 61.97949601 40 58.5 C34.82386271 52.25980079 29.76310266 45.94429217 24.79296875 39.5390625 C20.92715436 34.64056203 16.95151685 29.8296317 13 25 C12.67 43.48 12.34 61.96 12 81 C8.04 81 4.08 81 0 81 C0 54.27 0 27.54 0 0 Z " fill="#414141" transform="translate(465,49)"/>
<path d="M0 0 C6.97691692 -1.86982606 14.24409309 -3.08265756 21 0 C27.8086564 6.9468253 32.08577013 16.08226597 36.31860352 24.74853516 C38.01917299 28.0370765 39.89387661 30.96251545 42 34 C42.49927002 33.14768799 42.99854004 32.29537598 43.51293945 31.41723633 C45.37449151 28.23950979 47.23638923 25.0619859 49.09838867 21.88452148 C49.90251873 20.51218049 50.70655642 19.13978537 51.51049805 17.76733398 C52.66951304 15.78875544 53.8288657 13.81037509 54.98828125 11.83203125 C55.34465164 11.22349808 55.70102203 10.6149649 56.06819153 9.98799133 C57.04351216 8.3241836 58.02167125 6.66204072 59 5 C59.48146484 4.04416016 59.96292969 3.08832031 60.45898438 2.10351562 C62 0 62 0 64.17651367 -0.56762695 C65.40978394 -0.52835083 65.40978394 -0.52835083 66.66796875 -0.48828125 C68.00698242 -0.46411133 68.00698242 -0.46411133 69.37304688 -0.43945312 C70.30181641 -0.39755859 71.23058594 -0.35566406 72.1875 -0.3125 C73.59805664 -0.27866211 73.59805664 -0.27866211 75.03710938 -0.24414062 C77.35967473 -0.18519227 79.67903776 -0.10297785 82 0 C80.45139163 4.27624211 78.29941356 8.07810445 75.96484375 11.9609375 C75.36851891 12.96237289 75.36851891 12.96237289 74.76014709 13.98403931 C73.48929098 16.11638527 72.21347551 18.24571436 70.9375 20.375 C70.10709618 21.76673281 69.27701532 23.15865836 68.44726562 24.55078125 C68.03739914 25.23686966 67.62753265 25.92295807 67.20524597 26.62983704 C66.37571641 28.02159072 65.54948928 29.41531787 64.72651672 30.81095886 C62.7070148 34.22108348 60.6419867 37.56613692 58.40893555 40.84106445 C52.47504711 49.70878195 50.69738258 56.54287015 50.9375 67.4375 C50.93041016 68.75298828 50.92332031 70.06847656 50.91601562 71.42382812 C50.90440777 74.61598707 50.94641151 77.80826979 51 81 C44.4 81 37.8 81 31 81 C31.07863281 79.16179687 31.15726563 77.32359375 31.23828125 75.4296875 C31.56995318 58.34743133 29.09936421 47.2062406 19.06494141 33.00927734 C15.42611887 27.70635389 12.15789279 22.17559185 8.84472656 16.66555786 C7.70224954 14.77441492 6.54666667 12.89194252 5.38671875 11.01147461 C4.67836072 9.85662322 3.97002621 8.7017574 3.26171875 7.546875 C2.63225342 6.52432617 2.00278809 5.50177734 1.35424805 4.44824219 C0 2 0 2 0 0 Z " fill="#414141" transform="translate(740,49)"/>
<path d="M0 0 C4.29 0 8.58 0 13 0 C13 11.55 13 23.1 13 35 C27.85 35 42.7 35 58 35 C58 23.45 58 11.9 58 0 C61.96 0 65.92 0 70 0 C70 26.73 70 53.46 70 81 C66.04 81 62.08 81 58 81 C58 69.45 58 57.9 58 46 C43.15 46 28.3 46 13 46 C13 57.55 13 69.1 13 81 C8.71 81 4.42 81 0 81 C0 54.27 0 27.54 0 0 Z " fill="#414141" transform="translate(314,49)"/>
<path d="M0 0 C3.97915159 -0.02886984 7.95827653 -0.04675406 11.9375 -0.0625 C13.07380859 -0.07087891 14.21011719 -0.07925781 15.38085938 -0.08789062 C16.46044922 -0.09111328 17.54003906 -0.09433594 18.65234375 -0.09765625 C20.15269165 -0.10551147 20.15269165 -0.10551147 21.68334961 -0.11352539 C24 0 24 0 25 1 C25.47264759 18.08283434 16.57226492 34.25968997 6 47 C5.56429687 47.58136719 5.12859375 48.16273438 4.6796875 48.76171875 C-6.83076324 63.54610009 -26.16278709 72.59777947 -44.1875 75.875 C-45.115625 75.91625 -46.04375 75.9575 -47 76 C-49 74 -49 74 -49.24291992 71.69335938 C-49.23881104 70.75298828 -49.23470215 69.81261719 -49.23046875 68.84375 C-49.22853516 67.82152344 -49.22660156 66.79929687 -49.22460938 65.74609375 C-49.21236328 64.67488281 -49.20011719 63.60367188 -49.1875 62.5 C-49.18685547 61.42878906 -49.18621094 60.35757813 -49.18554688 59.25390625 C-49.14030114 51.28060228 -49.14030114 51.28060228 -48 49 C-46.23163691 48.34943164 -44.43318877 47.77990622 -42.625 47.25 C-27.87316791 42.47837659 -15.63842542 33.73353726 -8 20 C-6.58274116 16.75999954 -5.31964335 13.50941412 -4.140625 10.17578125 C-2.89588978 6.71013147 -1.47634531 3.3726854 0 0 Z " fill="#414141" transform="translate(146,98)"/>
<path d="M0 0 C1.00023193 0.00523682 2.00046387 0.01047363 3.03100586 0.01586914 C4.1105957 0.0190918 5.19018555 0.02231445 6.30249023 0.02563477 C8.00695312 0.03820312 8.00695312 0.03820312 9.74584961 0.05102539 C11.45611328 0.05779297 11.45611328 0.05779297 13.20092773 0.06469727 C16.02845312 0.07652792 18.85587601 0.09301129 21.68334961 0.11352539 C23.60130371 4.48799951 25.30027113 8.8502385 26.87084961 13.36352539 C33.23625015 29.9135668 45.1473809 39.20382835 60.75463867 46.33520508 C62.68866831 47.11567172 64.59719667 47.68568563 66.61303711 48.21508789 C67.62624023 48.51157227 68.63944336 48.80805664 69.68334961 49.11352539 C71.68831685 53.12345988 70.91212845 58.20482952 70.93334961 62.61352539 C70.95397461 63.68473633 70.97459961 64.75594727 70.99584961 65.85961914 C71.00358398 67.39295898 71.00358398 67.39295898 71.01147461 68.95727539 C71.02082031 69.89764648 71.03016602 70.83801758 71.03979492 71.80688477 C70.92216797 72.56807617 70.80454102 73.32926758 70.68334961 74.11352539 C67.68334961 76.11352539 67.68334961 76.11352539 64.31225586 75.60961914 C62.95249394 75.27367796 61.59711303 74.9196663 60.24584961 74.55102539 C59.17113403 74.26521606 59.17113403 74.26521606 58.07470703 73.97363281 C35.9104711 67.87308946 18.18378708 54.25658691 6.49584961 34.42602539 C0.7889436 24.344608 -3.64162673 12.8590989 -3.31665039 1.11352539 C-2.31665039 0.11352539 -2.31665039 0.11352539 0 0 Z " fill="#414141" transform="translate(7.316650390625,97.886474609375)"/>
<path d="M0 0 C4.29 0 8.58 0 13 0 C13.33 13.86 13.66 27.72 14 42 C16.495625 39.525 18.99125 37.05 21.5625 34.5 C22.71987671 33.3562793 22.71987671 33.3562793 23.90063477 32.18945312 C29.20524133 26.90580269 34.11107376 21.35913416 38.99047852 15.68554688 C52.8134085 -0.11575486 52.8134085 -0.11575486 59.5078125 -1.1640625 C63.1025164 -1.30731761 66.49754999 -0.83686859 70 0 C68.34264673 4.34923278 65.08845054 7.09134224 61.8125 10.25 C57.63165683 14.34884352 53.61980866 18.47669409 49.83203125 22.9453125 C45.77164844 27.49917467 41.34791766 31.72284411 37 36 C38.56655435 41.25256457 41.95435536 44.84582081 45.4375 48.9375 C46.70837391 50.45330239 47.97788692 51.97024673 49.24609375 53.48828125 C49.8788623 54.24447754 50.51163086 55.00067383 51.16357422 55.77978516 C54.30652094 59.57956679 57.32753318 63.47222728 60.35253906 67.3659668 C62.71973191 70.40279073 65.13946714 73.36341732 67.6875 76.25 C70 79 70 79 70 81 C59.02412451 82.35525292 59.02412451 82.35525292 54.7421875 79.48828125 C52.63250251 77.10054154 50.82515595 74.6124089 49 72 C47.67798947 70.29212475 46.33273041 68.60412124 44.98681641 66.91503906 C43.56527026 65.12848158 42.15752533 63.33191654 40.75390625 61.53125 C40.29516113 60.9434375 39.83641602 60.355625 39.36376953 59.75 C38.46757675 58.59999824 37.57267943 57.44898553 36.67919922 56.296875 C35.46174773 54.73257787 34.2311928 53.17850506 33 51.625 C32.29875 50.73039062 31.5975 49.83578125 30.875 48.9140625 C30.25625 48.28242187 29.6375 47.65078125 29 47 C24.72118859 47 22.76551167 49.32146236 19.875 52.1875 C13.33816671 58.83110028 12.75942521 65.14055868 12.74560547 74.19018555 C12.78916486 76.46128936 12.88859587 78.73121198 13 81 C8.71 81 4.42 81 0 81 C0 54.27 0 27.54 0 0 Z " fill="#414141" transform="translate(568,49)"/>
<path d="M0 0 C23.43 0 46.86 0 71 0 C71 5.28 71 10.56 71 16 C62.42 16 53.84 16 45 16 C45 37.45 45 58.9 45 81 C38.73 81 32.46 81 26 81 C26 59.55 26 38.1 26 16 C17.42 16 8.84 16 0 16 C0 10.72 0 5.44 0 0 Z " fill="#414141" transform="translate(837,49)"/>
<path d="M0 0 C22.11 0 44.22 0 67 0 C67 3.63 67 7.26 67 11 C58.09 11 49.18 11 40 11 C40 34.1 40 57.2 40 81 C36.04 81 32.08 81 28 81 C28 57.9 28 34.8 28 11 C18.76 11 9.52 11 0 11 C0 7.37 0 3.74 0 0 Z " fill="#414141" transform="translate(224,49)"/>
<path d="M0 0 C4.29 0 8.58 0 13 0 C13 26.73 13 53.46 13 81 C8.71 81 4.42 81 0 81 C0 54.27 0 27.54 0 0 Z " fill="#414141" transform="translate(418,49)"/>
<path d="M0 0 C3.87667573 3.22751541 5.7581609 6.29789821 6.375 11.39453125 C6.65429661 17.77471324 5.99473314 21.74198884 2.0625 26.8125 C-3.36345089 31.02038028 -8.07618233 32.65791236 -14.9375 31.8125 C-19.66513433 30.44809083 -23.03123932 28.23689846 -25.9375 24.25 C-28.68257222 19.26234335 -28.82343322 14.35993228 -27.9375 8.8125 C-26.17189553 3.46636802 -22.83468361 0.46514112 -17.9375 -2.1875 C-11.97266671 -4.11403001 -5.24963277 -3.47369317 0 0 Z " fill="#414141" transform="translate(110.9375,61.1875)"/>
</svg>
