<?xml version="1.0" encoding="UTF-8"?>
<svg version="1.1" xmlns="http://www.w3.org/2000/svg" width="1024" height="1024">
<path d="M0 0 C337.92 0 675.84 0 1024 0 C1024 337.92 1024 675.84 1024 1024 C686.08 1024 348.16 1024 0 1024 C0 686.08 0 348.16 0 0 Z " fill="#FEFEFE" transform="translate(0,0)"/>
<path d="M0 0 C0.69368592 -0.00453111 1.38737185 -0.00906223 2.10207856 -0.01373065 C4.41415994 -0.02633712 6.72600463 -0.02475674 9.03811646 -0.02310181 C10.70087993 -0.02908937 12.36364064 -0.03589544 14.02639771 -0.04345703 C18.53471516 -0.06110005 23.04295665 -0.06581167 27.55130529 -0.0670886 C30.36992651 -0.0685116 33.1885285 -0.07278401 36.00714493 -0.07808304 C45.84593174 -0.09657697 55.6846644 -0.10475436 65.52346802 -0.10317993 C74.68597295 -0.10197837 83.84824237 -0.12308518 93.01068771 -0.15466726 C100.88518977 -0.18084002 108.75961495 -0.19154682 116.63416016 -0.19026911 C121.33375529 -0.18975982 126.03314102 -0.19542515 130.73269272 -0.21662521 C135.15362719 -0.23602473 139.57415283 -0.23612045 143.99510193 -0.22159195 C145.61398543 -0.21950495 147.23289464 -0.22419831 148.85173416 -0.23631287 C158.17688697 -0.30155658 165.24799665 -0.16291007 172.83938599 5.81039429 C178.28761219 12.14659106 182.25316994 19.37414338 186.36526489 26.61068726 C188.00755592 29.49410303 189.66604495 32.36776413 191.32766724 35.24008179 C196.43733514 44.07412384 201.52937995 52.91826988 206.61282349 61.76742554 C213.68729907 74.0712669 220.85195473 86.31640286 228.1086731 98.51327515 C232.59103501 106.05937766 236.97788786 113.65304447 241.30764771 121.28744507 C245.35065069 128.39419102 249.51039393 135.42837615 253.69094849 142.45492554 C262.17835488 156.72202354 270.46626972 171.10098258 278.73294067 185.49691772 C286.36130111 198.77532103 294.06822477 212.00082654 301.8977356 225.16171265 C307.0867488 233.89696081 312.17360974 242.68763261 317.23391724 251.49789429 C321.71891505 259.29257602 326.28055399 267.03887231 330.87844849 274.76742554 C336.72030145 284.5887366 342.47245114 294.45709104 348.16799927 304.36386108 C354.58245336 315.512554 361.09121045 326.60494767 367.60791016 337.69404602 C370.20772354 342.11991445 372.79689919 346.55190731 375.38235474 350.98617554 C384.39866429 366.47159974 384.39866429 366.47159974 393.62844849 381.82992554 C393.99832886 382.44843384 394.36820923 383.06694214 394.7492981 383.70419312 C398.28123172 389.39056524 402.69551466 392.80158726 408.87844849 395.26742554 C412.62683103 395.69094439 416.35174047 395.66088765 420.12063599 395.63851929 C422.34329378 395.65590174 424.56594999 395.67348612 426.78860474 395.69125366 C430.27317211 395.70131899 433.75763672 395.70492349 437.24221802 395.70321655 C440.61866496 395.70679785 443.99432901 395.73418205 447.37063599 395.76351929 C448.92100052 395.7512455 448.92100052 395.7512455 450.50268555 395.73872375 C457.8716173 395.81410218 463.1675959 397.06520332 468.90188599 402.01351929 C469.57090942 402.85076538 469.57090942 402.85076538 470.25344849 403.70492554 C470.71493286 404.26051147 471.17641724 404.81609741 471.65188599 405.38851929 C474.46768865 409.70189853 475.12960002 413.43977813 475.1391449 418.54740906 C475.14622971 419.81325836 475.15331451 421.07910767 475.16061401 422.38331604 C475.15832036 423.77868688 475.15581069 425.17405738 475.15310669 426.56942749 C475.15745586 428.04485329 475.1626397 429.52027683 475.16859436 430.99569702 C475.18197557 434.99790206 475.18256386 439.00001261 475.18003106 443.00223565 C475.17896045 446.346992 475.18384717 449.6917293 475.18863648 453.03648156 C475.19972928 460.93077884 475.20017078 468.82502853 475.19412231 476.71932983 C475.18808599 484.85306766 475.20038535 492.98663236 475.22169238 501.12034065 C475.23933074 508.11160263 475.2453061 515.10280962 475.24205464 522.09409302 C475.24024472 526.26605224 475.2428485 530.43788804 475.25676918 534.60982704 C475.26937883 538.53577998 475.26737395 542.46146403 475.25435829 546.38741302 C475.25199952 547.82407155 475.25470203 549.26074918 475.26298141 550.69738579 C475.35150996 567.26004691 475.35150996 567.26004691 469.44094849 574.07992554 C463.70511935 578.97636504 460.11240105 580.41598984 452.54820251 580.42132568 C451.79582658 580.42570794 451.04345065 580.43009019 450.26827544 580.43460524 C447.73964896 580.44799154 445.21105733 580.45417173 442.68240356 580.46029663 C440.87230268 580.46819776 439.06220337 580.47646672 437.25210571 580.4850769 C431.30074569 580.51129683 425.34937863 580.52660502 419.39797974 580.54086304 C417.34920434 580.54622282 415.30042898 580.55160033 413.25165367 580.55699539 C404.72895448 580.57862452 396.20625718 580.597361 387.68353748 580.60861778 C375.4700932 580.62485537 363.25696714 580.65802827 351.04364282 580.71501863 C342.45584254 580.75372478 333.86812736 580.77325131 325.28024215 580.77853835 C320.15129644 580.782191 315.02269014 580.79420329 309.89383888 580.82664108 C305.06663461 580.85673327 300.23997492 580.86302939 295.41269684 580.85125732 C293.64383348 580.85103668 291.87494478 580.85933394 290.10616875 580.87691116 C273.51958912 581.03272898 273.51958912 581.03272898 266.87844849 575.26742554 C264.80545044 572.81454468 264.80545044 572.81454468 263.30422974 570.24008179 C262.45078979 568.79592896 262.45078979 568.79592896 261.58010864 567.32260132 C261.01856079 566.31439331 260.45701294 565.3061853 259.87844849 564.26742554 C259.3181897 563.26566284 258.75793091 562.26390015 258.18069458 561.23178101 C256.44679723 558.07084872 254.75182225 554.89170781 253.06594849 551.70492554 C251.82856156 549.38673962 250.59027812 547.06903201 249.35110474 544.75180054 C248.45609253 543.07634155 248.45609253 543.07634155 247.54299927 541.36703491 C245.39954562 537.37564631 243.21343904 533.40976975 241.00344849 529.45492554 C240.21045447 528.03436672 239.41748686 526.61379317 238.62454224 525.19320679 C238.19899048 524.43088745 237.77343872 523.66856812 237.33499146 522.88314819 C234.2318381 517.31037162 231.14869136 511.72651046 228.06594849 506.14242554 C227.72265503 505.52067444 227.37936157 504.89892334 227.02566528 504.2583313 C221.7685966 494.73321161 216.56740672 485.17904552 211.39749146 475.60629272 C207.41745729 468.24341613 203.38332959 460.91303981 199.29251099 453.61117554 C197.56636768 450.52422525 195.8815715 447.41784785 194.21438599 444.29867554 C193.77119019 443.47802612 193.32799438 442.65737671 192.87136841 441.81185913 C192.02681194 440.24657868 191.19045702 438.67683323 190.36404419 437.10189819 C187.58526393 431.98361512 184.75327944 428.78049446 179.50344849 426.01742554 C174.66137469 424.63397588 170.53025885 424.73491336 165.87844849 426.64242554 C157.30324209 431.52279246 152.73015531 442.69064567 147.94412231 450.98373413 C146.08782484 454.19961535 144.21662858 457.40682303 142.34719849 460.61508179 C141.96946289 461.26413483 141.59172729 461.91318787 141.20254517 462.58190918 C137.65050855 468.67758146 134.02290503 474.7266006 130.37844849 480.76742554 C124.63676799 490.2971952 118.98317396 499.87524063 113.36685181 509.47912598 C107.49215947 519.5246628 101.59149758 529.55406833 95.634552 539.55111694 C92.46484352 544.87464728 89.32786964 550.21130846 86.26907349 555.59945679 C85.69576294 556.59920532 85.12245239 557.59895386 84.5317688 558.6289978 C83.47193876 560.48057033 82.4233363 562.33864191 81.38919067 564.2046814 C77.18614448 571.50616337 72.10170059 577.59381879 63.87844849 580.26742554 C61.21778876 580.46384399 58.66183418 580.56126931 56.00222778 580.55795288 C54.83534927 580.56802872 54.83534927 580.56802872 53.64489746 580.57830811 C51.08075519 580.59725929 48.51687513 580.60121097 45.95266724 580.60336304 C44.16293736 580.60979347 42.37320853 580.61652201 40.58348083 580.62353516 C36.8335527 580.63550108 33.08371663 580.63921674 29.33377075 580.63803101 C24.54217037 580.63782797 19.75116412 580.66511696 14.9597044 580.69957542 C11.26294779 580.72187754 7.56633335 580.72586752 3.86951637 580.72481155 C2.10376757 580.72716303 0.33801458 580.7359609 -1.42766762 580.75147629 C-3.90457665 580.77120188 -6.38021516 580.76527309 -8.85714722 580.75326538 C-9.57793961 580.76450439 -10.29873199 580.77574341 -11.04136658 580.787323 C-19.49017208 580.68390118 -25.4884519 576.4857272 -31.37155151 570.76742554 C-32.195625 569.98782471 -32.195625 569.98782471 -33.03634644 569.19247437 C-37.84703436 564.61306289 -42.52947102 559.9029772 -47.17233276 555.15414429 C-49.35551448 552.96489185 -51.63476666 550.9298017 -53.97702026 548.91195679 C-58.95296188 544.604891 -63.5161102 539.92375438 -68.12155151 535.22836304 C-72.00699483 531.29738718 -75.99682566 527.58884468 -80.18405151 523.98226929 C-83.9156414 520.67951131 -87.35059157 517.07881836 -90.83248901 513.51742554 C-93.79349365 510.51622627 -96.79834154 507.64098619 -99.99655151 504.89242554 C-105.42817909 500.20385299 -110.38330054 495.05240435 -115.41061401 489.93930054 C-119.55692272 485.75024638 -123.78080143 481.75711224 -128.25045776 477.91586304 C-131.17967563 475.33521598 -133.89458153 472.55835162 -136.62155151 469.76742554 C-140.00934811 466.33704558 -143.3737724 462.94458079 -147.05905151 459.82992554 C-151.58738711 455.99381959 -155.69943236 451.74161117 -159.84786987 447.5039978 C-162.82264219 444.48508562 -165.8470125 441.59654508 -169.05905151 438.82992554 C-174.01149326 434.55498546 -178.54333082 429.8960021 -183.12155151 425.22836304 C-187.00372552 421.3006948 -190.98527348 417.58042931 -195.16647339 413.97348022 C-198.3321679 411.21100854 -201.36481418 408.32599006 -204.37155151 405.39242554 C-205.26873901 404.55131226 -205.26873901 404.55131226 -206.18405151 403.69320679 C-213.45998525 396.56214784 -215.52442239 389.83431232 -215.66571891 379.6608125 C-215.67512337 377.3627587 -215.66529202 375.06522516 -215.65499878 372.7671814 C-215.66206537 371.10397072 -215.67081349 369.44076647 -215.68110657 367.77757263 C-215.70352391 363.28173778 -215.70067937 358.78625623 -215.6917851 354.29038692 C-215.68666036 350.53036365 -215.69397956 346.7704059 -215.70125717 343.01038939 C-215.71823085 334.13889672 -215.71471471 325.26757618 -215.69796753 316.39608765 C-215.68103535 307.25559551 -215.69690149 298.11558057 -215.72919041 288.97514051 C-215.75590648 281.11329211 -215.76315726 273.25159208 -215.75467533 265.38970286 C-215.74975364 260.70018925 -215.75192113 256.0109629 -215.77246284 251.32148552 C-215.79085265 246.91271355 -215.78482133 242.50462733 -215.76026344 238.09589195 C-215.75526662 236.48185313 -215.75871599 234.86776173 -215.7714119 233.25376511 C-215.88778694 217.18343933 -215.88778694 217.18343933 -210.12155151 211.26742554 C-204.96828628 207.24787865 -201.31272573 206.14321909 -194.86775208 206.13612366 C-193.5570575 206.13211548 -192.24636292 206.1281073 -190.89595032 206.12397766 C-189.43981932 206.12445277 -187.98368833 206.12498889 -186.52755737 206.12557983 C-184.99656067 206.12254819 -183.46556486 206.11902672 -181.93457031 206.11505127 C-178.63446388 206.10716016 -175.33436827 206.10201646 -172.03425407 206.0987606 C-166.80986607 206.09284769 -161.58554609 206.07630301 -156.3611908 206.05741882 C-154.5717421 206.0510812 -152.78229336 206.04475557 -150.99284458 206.03844166 C-150.09657482 206.03527585 -149.20030506 206.03211004 -148.27687562 206.02884829 C-136.1141919 205.98680261 -123.95153936 205.95381749 -111.78878784 205.9414978 C-103.58530767 205.9331031 -95.38199553 205.91055786 -87.17859942 205.87214214 C-82.83997057 205.85242413 -78.50159268 205.83996259 -74.16291618 205.84497643 C-70.07601234 205.84964153 -65.98958307 205.83571661 -61.90277481 205.80796432 C-60.40892278 205.80108295 -58.91502137 205.80089287 -57.42117119 205.8081646 C-47.99616741 205.84938232 -39.30885074 205.44885424 -31.68405151 199.30258179 C-31.16842651 198.65160522 -30.65280151 198.00062866 -30.12155151 197.32992554 C-29.58530151 196.6815271 -29.04905151 196.03312866 -28.49655151 195.36508179 C-25.43129432 190.68882295 -24.87241899 186.79858195 -24.87672424 181.24162292 C-24.87332738 180.19836705 -24.87332738 180.19836705 -24.8698619 179.13403529 C-24.86457617 176.80967126 -24.87338882 174.48557506 -24.88204956 172.16122437 C-24.88093635 170.49200353 -24.87887804 168.82278309 -24.87594604 167.15356445 C-24.87122597 163.56099582 -24.87234184 159.96849255 -24.87772179 156.37592506 C-24.88533604 150.68929466 -24.87467016 145.00278997 -24.86051941 139.31617737 C-24.82279505 123.14619471 -24.80457661 106.97626859 -24.81613159 90.8062439 C-24.82235726 81.8739431 -24.81071908 72.94184511 -24.77968627 64.00959414 C-24.76107396 58.36304486 -24.76431087 52.71707187 -24.78385389 47.07053244 C-24.7907611 43.54745993 -24.77672819 40.02469625 -24.7569046 36.50168228 C-24.75187931 34.87558654 -24.75528508 33.24943797 -24.7680378 31.62338448 C-24.83889799 21.89147169 -24.45829035 13.31133229 -17.67893505 5.63364887 C-12.46529758 0.86873375 -6.83193079 0.01850059 0 0 Z " fill="#000000" transform="translate(400.1215515136719,202.73257446289063)"/>
<path d="M0 0 C0.96378571 -0.00619858 1.92757141 -0.01239716 2.92056274 -0.01878357 C4.94931027 -0.02585327 6.97811615 -0.02275785 9.00683594 -0.01000977 C12.08638991 0.00383802 15.16289024 -0.03023708 18.2421875 -0.06835938 C20.22395907 -0.06931095 22.20573439 -0.06744971 24.1875 -0.0625 C25.09511078 -0.07575821 26.00272156 -0.08901642 26.93783569 -0.10267639 C34.57423555 0.00678445 41.33982221 2.30040536 46.91796875 7.6796875 C47.37042969 8.40542969 47.82289063 9.13117188 48.2890625 9.87890625 C49.12244141 11.19568359 49.12244141 11.19568359 49.97265625 12.5390625 C52.75247044 17.33718276 55.48720843 22.15605874 58.171875 27.0078125 C60.93535171 31.97577514 63.82449571 36.86595796 66.7265625 41.75390625 C71.49562749 49.7914893 76.23936959 57.84331864 80.9597168 65.90957642 C86.85279728 75.97936602 92.77058084 86.0336502 98.7265625 96.06640625 C105.03768178 106.69738595 111.30466862 117.35335668 117.546875 128.02490234 C120.89858324 133.75320934 124.26017802 139.47518832 127.65234375 145.1796875 C128.25796143 146.19893311 128.8635791 147.21817871 129.48754883 148.26831055 C130.61640247 150.1657926 131.7476138 152.06187475 132.8815918 153.95629883 C133.37699463 154.7892749 133.87239746 155.62225098 134.3828125 156.48046875 C134.81400391 157.20186035 135.24519531 157.92325195 135.68945312 158.66650391 C138.44397829 163.71257614 138.2776405 168.97143376 137.7265625 174.56640625 C135.30259572 182.4047771 129.692229 187.50310079 122.7265625 191.56640625 C119.23523417 192.45763941 115.96600754 192.6952115 112.37117004 192.70684814 C111.31015076 192.71255829 110.24913147 192.71826843 109.15596008 192.72415161 C108.00210312 192.72526947 106.84824615 192.72638733 105.65942383 192.72753906 C104.43605316 192.73250397 103.2126825 192.73746887 101.95223999 192.74258423 C98.60278194 192.7546705 95.25338615 192.7621454 91.90391374 192.76659489 C89.807422 192.76953289 87.71093565 192.7736391 85.61444664 192.77809906 C79.04382727 192.79176461 72.4732203 192.80143527 65.90258771 192.80530095 C58.33882132 192.80977633 50.77523612 192.82730389 43.21152478 192.85630155 C37.35143985 192.87798142 31.49140565 192.88800862 25.63128108 192.88934207 C22.13775602 192.89038581 18.6444015 192.89620069 15.15091896 192.91416168 C11.24744567 192.93384085 7.34419533 192.92932834 3.44067383 192.92285156 C2.29693802 192.93206635 1.15320221 192.94128113 -0.02519226 192.95077515 C-7.99916785 192.90946966 -16.1124165 192.23954774 -22.7109375 187.31640625 C-28.33915864 181.27636405 -29.38960466 174.25347558 -29.42060852 166.29315186 C-29.42776382 165.02874771 -29.43491913 163.76434357 -29.44229126 162.46162415 C-29.44513115 161.06784082 -29.44784293 159.67405723 -29.45043945 158.28027344 C-29.45670877 156.80647117 -29.46335598 155.33267046 -29.47035217 153.85887146 C-29.4913375 149.02701914 -29.50174869 144.19516669 -29.51171875 139.36328125 C-29.51576823 137.69651524 -29.51988521 136.02974939 -29.52406883 134.3629837 C-29.54310756 126.5317464 -29.55734192 118.70051844 -29.5656808 110.86926246 C-29.57545168 101.84351106 -29.60177274 92.81800501 -29.64218169 83.79234004 C-29.67238153 76.80616704 -29.68715329 69.82006424 -29.69046181 62.83382726 C-29.69280766 58.66568551 -29.70170739 54.49780626 -29.72692299 50.3297348 C-29.75027706 46.40620455 -29.75440778 42.4831083 -29.74416161 38.55952644 C-29.74366793 37.12488673 -29.74993857 35.6902251 -29.76371765 34.25565147 C-29.85492601 24.19134893 -28.87557656 16.02077262 -22.0234375 8.25390625 C-21.50265625 7.63902344 -20.981875 7.02414062 -20.4453125 6.390625 C-14.12504315 1.08205344 -8.08788474 -0.04400202 0 0 Z " fill="#FDFDFD" transform="translate(416.2734375,406.43359375)"/>
</svg>
