<?xml version="1.0" encoding="UTF-8"?>
<svg version="1.1" xmlns="http://www.w3.org/2000/svg" width="922" height="1003">
<path d="M0 0 C304.26 0 608.52 0 922 0 C922 330.99 922 661.98 922 1003 C617.74 1003 313.48 1003 0 1003 C0 672.01 0 341.02 0 0 Z " fill="#000000" transform="translate(0,0)"/>
<path d="M0 0 C1.31510056 -0.00571014 2.63020111 -0.01142029 3.9851532 -0.01730347 C5.45126333 -0.0185489 6.91737358 -0.01967398 8.38348389 -0.02069092 C9.92082336 -0.02531806 11.45816168 -0.03034258 12.99549866 -0.03573608 C17.17953351 -0.04887385 21.3635523 -0.05530795 25.54760456 -0.05974674 C28.16115091 -0.06267581 30.77469286 -0.06678034 33.388237 -0.07125092 C41.56386999 -0.0849307 49.73949293 -0.09459448 57.91513658 -0.09845281 C67.35520423 -0.10293214 76.79512698 -0.12047217 86.23515058 -0.1494534 C93.52949484 -0.17107031 100.82379835 -0.18115712 108.11817431 -0.18249393 C112.47568244 -0.18354213 116.83305445 -0.18945296 121.19052887 -0.20731354 C125.29124249 -0.22379397 129.39171769 -0.22594992 133.49245262 -0.21717453 C134.99606909 -0.21640408 136.49969837 -0.22074791 138.00328255 -0.23063278 C140.05951899 -0.24335594 142.11491152 -0.23747439 144.17114258 -0.22705078 C145.32078617 -0.22851734 146.47042976 -0.2299839 147.65491104 -0.2314949 C154.23940085 0.53751624 158.02315571 3.86196204 162.08514404 8.75372314 C165.30389004 13.13257937 167.83315501 17.86102825 170.40203857 22.64044189 C171.63193364 24.88235736 172.86375405 27.12321752 174.09735107 29.36309814 C174.71900146 30.49505615 175.34065186 31.62701416 175.98114014 32.79327393 C178.83534951 37.93400048 181.79944488 43.00797366 184.77703857 48.07794189 C189.66393354 56.41356299 194.51853096 64.76652341 199.33953857 73.14044189 C204.20799494 81.59412725 209.10288994 90.03157889 214.02703857 98.45294189 C218.8099179 106.63563521 223.54507316 114.8435641 228.23748779 123.07843018 C234.08987272 133.34560334 240.00545008 143.57622904 245.91619873 153.80987549 C249.68220729 160.33131351 253.44436274 166.85497498 257.20721436 173.37823486 C260.36851353 178.85831521 263.53079437 184.33782463 266.69500732 189.81622314 C276.88103442 207.45449411 287.03920815 225.10388662 296.96453857 242.89044189 C301.2129473 250.4999262 305.50929755 258.0715312 309.95697021 265.56622314 C313.65969123 271.80988174 317.28255501 278.09823133 320.90203857 284.39044189 C327.06379832 295.09380967 333.27874136 305.76476649 339.5458374 316.40679932 C343.01830257 322.30648457 346.46513201 328.21806237 349.85125732 334.16778564 C350.48281738 335.27106201 351.11437744 336.37433838 351.76507568 337.51104736 C352.94741158 339.57954188 354.12191685 341.65253997 355.28704834 343.73077393 C358.40829297 349.17282189 361.0719299 353.25663756 366.83953857 356.14044189 C368.55879555 356.24446088 370.28197283 356.28639877 372.0043335 356.29815674 C373.08272995 356.30841888 374.1611264 356.31868103 375.27220154 356.32925415 C376.44297745 356.33655548 377.61375336 356.34385681 378.82000732 356.35137939 C381.28811283 356.37945555 383.7562117 356.40812007 386.2243042 356.43731689 C390.12379723 356.47853723 394.02316738 356.51541569 397.92279053 356.54180908 C401.6804584 356.56946178 405.43755883 356.61534478 409.19500732 356.66387939 C410.35566208 356.66713226 411.51631683 356.67038513 412.71214294 356.67373657 C418.81685429 356.76616707 423.55124124 356.95516208 428.83953857 360.14044189 C432.39364367 363.82435529 433.33973571 366.11417523 433.34074402 371.20610046 C433.35057816 372.42435516 433.36041229 373.64260986 433.37054443 374.89778137 C433.36117329 376.23965735 433.35139402 377.58153054 433.34124756 378.92340088 C433.34503247 380.34296199 433.35053394 381.7625194 433.35762024 383.18206787 C433.37157116 387.03138279 433.36040736 390.88025054 433.34390903 394.72954059 C433.33004543 398.76129163 433.3365202 402.79301704 433.34004211 406.82478333 C433.34274352 413.59617303 433.32927579 420.36738541 433.30609131 427.13873291 C433.27949268 434.96124756 433.27773129 442.78346554 433.28947967 450.6060099 C433.30026965 458.13720513 433.29406013 465.66829331 433.27992439 473.19948006 C433.27417407 476.40150554 433.27423978 479.60345244 433.27898979 482.80547905 C433.28377207 486.57879888 433.27360649 490.35179509 433.25203514 494.12505341 C433.24648367 495.50771303 433.24598691 496.89040385 433.25098801 498.27306557 C433.25697041 500.16465074 433.24256162 502.05626728 433.22721863 503.94779968 C433.22478873 505.00505469 433.22235884 506.0623097 433.21985531 507.15160275 C432.5941831 512.06864536 430.86167617 515.25619881 427.13270569 518.48210144 C421.06966191 521.52732586 413.7723758 520.70458798 407.14886475 520.67388916 C405.54830634 520.68095273 403.94775461 520.68969959 402.34721375 520.69999695 C398.0122744 520.7224556 393.6777008 520.71955894 389.34272552 520.71067548 C385.7171979 520.70555556 382.09173841 520.71286656 378.46621782 520.72014755 C369.90822416 520.73713648 361.35040884 520.73359218 352.79241943 520.71685791 C343.98032744 520.69994885 335.16873126 520.71575656 326.35669345 520.74808079 C318.77680376 520.7748261 311.19706794 520.78203904 303.61713582 520.77356571 C299.09631653 520.76864948 294.57579524 520.77078073 290.05501366 520.79135323 C285.80055968 520.8097874 281.54681495 520.80365807 277.29239845 520.77915382 C275.73725356 520.77416976 274.18205391 520.77757282 272.62695312 520.79030228 C262.76067672 520.86462992 254.38098075 520.22575501 246.80662823 513.27486515 C242.13035505 508.38707713 238.97593074 502.55031131 235.77703857 496.64044189 C234.64451301 494.59268727 233.51034379 492.54584098 232.37469482 490.49981689 C231.79477783 489.45116455 231.21486084 488.40251221 230.61737061 487.32208252 C227.72009576 482.13706661 224.71901428 477.01385494 221.71453857 471.89044189 C220.53475316 469.8748742 219.35506412 467.8592501 218.17547607 465.84356689 C217.61054443 464.87870361 217.04561279 463.91384033 216.46356201 462.91973877 C214.07614195 458.83399163 211.70679881 454.73789215 209.33953857 450.64044189 C206.4275377 445.60209048 203.50818957 440.56820407 200.57391357 435.54278564 C199.72011108 434.08050537 199.72011108 434.08050537 198.84906006 432.58868408 C197.67791295 430.58471763 196.50555311 428.58145941 195.33197021 426.57891846 C192.45853814 421.66740459 189.60624824 416.74598205 186.81246948 411.78877258 C185.46558818 409.39909719 184.11177949 407.01337223 182.75811768 404.62753296 C181.79837728 402.92822404 180.84958804 401.22274486 179.90106201 399.51715088 C179.31228271 398.48018066 178.72350342 397.44321045 178.11688232 396.37481689 C177.60375488 395.45926025 177.09062744 394.54370361 176.56195068 393.60040283 C174.22430062 390.26175478 171.48361508 387.96248015 167.83953857 386.14044189 C165.6735079 385.82690096 165.6735079 385.82690096 163.21453857 385.76544189 C162.39727295 385.71645752 161.58000732 385.66747314 160.73797607 385.61700439 C155.08421797 386.63803349 151.31624999 389.09105829 147.94207764 393.77374268 C146.31029885 396.4995257 144.75173349 399.24867252 143.2572937 402.05203247 C141.90740678 404.58366405 140.51355739 407.09021155 139.12254333 409.59941101 C138.40602145 410.8930543 137.69176677 412.18795587 136.97975159 413.48408508 C133.60930937 419.61023112 130.03103507 425.60165483 126.40203857 431.57794189 C120.98671601 440.54283973 115.63374591 449.54118731 110.33953857 458.57794189 C109.80857071 459.4839061 109.80857071 459.4839061 109.26687622 460.40817261 C105.37761892 467.04782919 101.50977866 473.69935847 97.67547607 480.37091064 C97.17126129 481.24769722 97.17126129 481.24769722 96.65686035 482.14219666 C95.07509117 484.893831 93.49663629 487.64727584 91.92352295 490.40386963 C77.16460826 516.14591864 77.16460826 516.14591864 64.83953857 520.14044189 C61.99291957 520.42952767 59.36575291 520.58144309 56.52435303 520.57623291 C55.32278313 520.59134666 55.32278313 520.59134666 54.09693909 520.60676575 C51.46542142 520.63511176 48.8344804 520.64111608 46.20281982 520.64434814 C44.35826896 520.65400078 42.51372036 520.6640941 40.66917419 520.67460632 C36.80671879 520.69253596 32.94446428 520.69813085 29.08197021 520.6963501 C24.16049211 520.69604595 19.24031946 520.73694379 14.31914997 520.78866673 C10.50896936 520.82222076 6.69909756 520.8281018 2.88878441 520.82652092 C1.07607729 520.83003441 -0.73664013 520.8431528 -2.54920006 520.86651802 C-16.50577239 521.02954794 -25.88495121 519.25231593 -36.52667236 509.43951416 C-38.33144121 507.62714626 -40.12030238 505.79882994 -41.89483643 503.95684814 C-42.86601409 502.97188214 -43.83864193 501.98834417 -44.81262207 501.00614929 C-47.34804487 498.4424693 -49.8653312 495.86173958 -52.37841797 493.27618408 C-55.42586837 490.1467836 -58.49260779 487.03630818 -61.55859756 483.92508602 C-63.94557275 481.50278325 -66.32783801 479.07653199 -68.70092773 476.64057922 C-73.04249544 472.20104537 -77.4362242 467.95515072 -82.15222168 463.91764832 C-86.15544093 460.37497022 -89.86957948 456.5313928 -93.62921143 452.73419189 C-94.5089563 451.8506604 -95.38870117 450.96712891 -96.29510498 450.05682373 C-99.55703088 446.78071869 -102.81438707 443.50009209 -106.07141113 440.21911621 C-109.27533403 436.99213652 -112.48315259 433.7690611 -115.69171143 430.54669189 C-116.52214966 429.70795532 -117.35258789 428.86921875 -118.20819092 428.00506592 C-122.43744313 423.75822846 -126.74350525 419.69562852 -131.28753662 415.78851318 C-134.3283926 413.11272641 -137.16204974 410.24288031 -140.00421143 407.35919189 C-140.61760376 406.74201294 -141.23099609 406.12483398 -141.86297607 405.48895264 C-144.44795661 402.88785401 -147.02683964 400.28074175 -149.60626221 397.6741333 C-158.639527 388.50207195 -158.639527 388.50207195 -168.17950439 379.86798096 C-172.26557316 376.30463087 -176.1342738 372.5077377 -179.99859619 368.70733643 C-180.98431216 367.74332938 -181.97624951 366.7856444 -182.97418213 365.83428955 C-184.44324695 364.43273204 -185.89108414 363.01190284 -187.33624268 361.58575439 C-188.19129395 360.75575928 -189.04634521 359.92576416 -189.92730713 359.07061768 C-196.09582934 350.97675044 -195.59764387 341.67644915 -195.56451416 331.89361572 C-195.57022502 330.36509199 -195.57719204 328.83657252 -195.58531189 327.30805969 C-195.60317297 323.18016014 -195.60208908 319.05247394 -195.5963695 314.92454743 C-195.59326943 311.47252501 -195.59937872 308.02054309 -195.60540825 304.56852645 C-195.61942676 296.42587837 -195.61791265 288.28333528 -195.60650635 280.14068604 C-195.59500912 271.74774721 -195.6091337 263.35512734 -195.63590282 254.9622305 C-195.65806049 247.74415777 -195.66469761 240.52618518 -195.65882641 233.30808085 C-195.65545803 229.00207569 -195.65786476 224.6962753 -195.67507744 220.39029884 C-195.69054722 216.34439276 -195.68659106 212.29896013 -195.66777229 208.25307274 C-195.66408743 206.77042099 -195.66719197 205.28773413 -195.67765808 203.80511475 C-195.69087346 201.77803595 -195.67690901 199.75083471 -195.66166687 197.72377014 C-195.66135294 196.02400386 -195.66135294 196.02400386 -195.66103268 194.28989887 C-194.84314773 189.14399115 -192.27309685 186.06444961 -188.33573914 182.79460144 C-182.52402114 179.83031594 -175.70798239 180.6140871 -169.35601807 180.67388916 C-167.85074191 180.6733399 -166.34546548 180.67096197 -164.8401947 180.66690063 C-161.60823734 180.66173726 -158.37662011 180.66875827 -155.144701 180.68515205 C-150.029691 180.71033189 -144.91501438 180.70396988 -139.79997253 180.69267273 C-127.09671314 180.66950322 -114.39355102 180.6878845 -101.69030762 180.71417236 C-91.81330007 180.73413659 -81.93656011 180.74266619 -72.05955213 180.71723598 C-66.97936375 180.70544558 -61.89993882 180.7170158 -56.81983006 180.74648869 C-53.65414963 180.75978412 -50.48876231 180.75229923 -47.32309151 180.73920822 C-45.86061604 180.73735843 -44.39809998 180.74400802 -42.93571091 180.76001167 C-32.70986976 181.00138146 -32.70986976 181.00138146 -23.74633503 176.70448685 C-18.01257095 171.04964478 -16.63671568 166.399623 -16.51093698 158.28579557 C-16.5081179 156.1566952 -16.52818009 154.0284695 -16.54864502 151.8994751 C-16.54509987 150.35962276 -16.53931772 148.81977421 -16.53147888 147.27993774 C-16.51934015 143.97700346 -16.52271892 140.67458657 -16.538311 137.37166786 C-16.56269475 132.14813892 -16.55110672 126.92506008 -16.53463745 121.70152283 C-16.51018494 112.50206185 -16.51593149 103.30280715 -16.52844238 94.10333252 C-16.54705487 80.24343111 -16.54218158 66.38356822 -16.50840819 52.52369565 C-16.49689772 47.33161122 -16.50132735 42.13985585 -16.51842856 36.94778979 C-16.52632522 33.72004711 -16.52207608 30.4924003 -16.51471901 27.26465988 C-16.51390877 25.76868107 -16.51825876 24.27268918 -16.528162 22.77674294 C-16.54103118 20.73393851 -16.53378748 18.69103694 -16.52554321 16.64820862 C-16.52742834 15.50543614 -16.52931347 14.36266367 -16.53125572 13.18526173 C-15.9585206 8.48218166 -14.1072213 5.97174324 -10.59796143 2.89044189 C-6.76176199 0.13624743 -4.71393934 0.01221318 0 0 Z " fill="#FCFCFC" transform="translate(365.16046142578125,227.85955810546875)"/>
<path d="M0 0 C0.99451172 -0.00857025 1.98902344 -0.0171405 3.01367188 -0.02597046 C5.10804205 -0.03741275 7.20249166 -0.03849026 9.296875 -0.02978516 C12.49096649 -0.0234554 15.68136475 -0.07045575 18.875 -0.12109375 C20.91666202 -0.12563959 22.95833394 -0.12704679 25 -0.125 C26.4221582 -0.15262924 26.4221582 -0.15262924 27.87304688 -0.18081665 C33.6584236 -0.10054351 36.9466277 0.82495665 41.09173584 4.95355225 C43.01711953 7.20671764 44.56217068 9.47784249 46.0078125 12.06640625 C46.8886853 13.61932373 46.8886853 13.61932373 47.78735352 15.20361328 C48.39377686 16.30431152 49.0002002 17.40500977 49.625 18.5390625 C50.27987889 19.7036884 50.93607036 20.86757712 51.59350586 22.03076172 C52.93197914 24.40393 54.26277029 26.78113313 55.58642578 29.16259766 C57.86597862 33.25927809 60.16987878 37.34182188 62.47729492 41.42285156 C63.54022335 43.3028254 64.60156679 45.18369621 65.66137695 47.06542969 C70.04935408 54.84639294 74.54350412 62.56245273 79.05883789 70.27001953 C83.93645164 78.60689094 88.73315767 86.98840951 93.51364136 95.38113403 C97.66891516 102.67433222 101.85415003 109.94849521 106.09716797 117.19116211 C108.37703628 121.08371947 110.64311832 124.98423817 112.91015625 128.88427734 C114.45530872 131.5251783 116.02318917 134.15149928 117.59375 136.77734375 C118.52173251 138.3640578 119.44886959 139.95126671 120.375 141.5390625 C120.7982959 142.23016113 121.2215918 142.92125977 121.65771484 143.63330078 C124.51832583 148.61044727 125.29530602 152.88788155 124.5 158.6015625 C122.39943423 165.27994816 118.46421907 169.062221 112.5 172.6015625 C109.57237589 173.5774372 107.65705148 173.73831163 104.60617065 173.76219177 C103.59694046 173.7722374 102.58771027 173.78228302 101.54789734 173.79263306 C100.44138321 173.79846405 99.33486908 173.80429504 98.19482422 173.81030273 C96.44557899 173.82497841 96.44557899 173.82497841 94.66099548 173.83995056 C90.7922378 173.86992407 86.92351477 173.89129676 83.0546875 173.91015625 C82.39552165 173.91345357 81.73635579 173.91675089 81.05721521 173.92014813 C74.83502738 173.95093524 68.61283456 173.9776306 62.39059258 173.99456692 C54.44603056 174.01644805 46.50214653 174.05836589 38.55785549 174.12800449 C32.96449866 174.17535976 27.37132395 174.19951594 21.77777302 174.2067638 C18.44088377 174.21170438 15.10536332 174.2296841 11.76858139 174.2665081 C8.03903425 174.30544687 4.31124539 174.30645259 0.58154297 174.29858398 C-1.06001015 174.3285849 -1.06001015 174.3285849 -2.73472595 174.35919189 C-10.06535327 174.28994578 -15.23179727 172.90345168 -20.5 167.6015625 C-25.56210825 160.81152158 -25.06277543 152.76882107 -25.00170898 144.65576172 C-25.00549876 143.26678929 -25.0110042 141.87782065 -25.01808167 140.48886108 C-25.0319654 136.74094679 -25.02091812 132.99349519 -25.00437045 129.2456069 C-24.99045246 125.31177562 -24.99698747 121.37796937 -25.00050354 117.44412231 C-25.00319972 110.84206746 -24.98977906 104.24019503 -24.96655273 97.63818359 C-24.9399246 90.01668827 -24.93820508 82.39549737 -24.9499411 74.77397144 C-24.9607361 67.42430869 -24.95451975 60.07475554 -24.94038582 52.72510147 C-24.93464314 49.60484333 -24.93469506 46.48466585 -24.93945122 43.36440659 C-24.94423884 39.68869978 -24.93404606 36.0133246 -24.91249657 32.33768082 C-24.90431882 30.3531477 -24.91076068 28.36857105 -24.91769409 26.3840332 C-24.84419863 17.54328044 -23.89928541 11.17860584 -17.5 4.6015625 C-11.64135125 0.4654255 -7.07380119 -0.0136 0 0 Z " fill="#010101" transform="translate(386.5,411.3984375)"/>
</svg>
